<svg xmlns="http://www.w3.org/2000/svg" width="17" height="17" viewBox="0 0 17 17">
    <path fill="#FFF" fill-rule="evenodd" stroke="#4A4A4A" stroke-width=".3" d="M9.303 7.957l7.17-7.17a.317.317 0 0 0 0-.448l-.179-.18a.317.317 0 0 0-.448 0l-7.17 7.17a.155.155 0 0 1-.219 0L1.287.16a.317.317 0 0 0-.448 0l-.18.18a.317.317 0 0 0 0 .448l7.17 7.17c.06.06.06.158 0 .219l-7.17 7.17a.317.317 0 0 0 0 .448l.18.18a.317.317 0 0 0 .448 0l7.17-7.17c.06-.061.158-.061.219 0l7.17 7.17a.317.317 0 0 0 .448 0l.18-.18a.317.317 0 0 0 0-.448l-7.17-7.17a.154.154 0 0 1 0-.219"/>
</svg>
