<svg xmlns="http://www.w3.org/2000/svg" width="46" height="46" viewBox="0 0 46 46">
    <g fill="none" fill-rule="evenodd">
        <path fill="#ECF8FE" fill-rule="nonzero" d="M5.38 15.474c7.04 1.782 4.91-7.642 5.832-7.642.922 0 16.077 12.368 19.865 1.672 2.526-7.131 7.004-5.794 13.435 4.011 3.481 4.68 3.038 7.02-1.331 7.02-6.553 0-8.315 5.682-8.315 12.145 0 6.462-9.011 8.802-12.595 3.565-3.584-5.237 6.609-1.179-9.85-3.565-16.46-2.387-14.08-18.99-7.04-17.206z"/>
        <path fill="#EBD4F8" d="M39 36.203L23 43V23.797L39 17z"/>
        <path fill="#5E77FF" d="M23.5 9L39 16l-15.5 7L8 16z"/>
        <path fill="#FFF" d="M8 36.203V17l16 6.797V43z"/>
        <path fill="#5E77FF" fill-rule="nonzero" d="M44.501 37.737l-4.54-2.075v-18.97a.87.87 0 0 0-.516-.798L24.34 9.21V2.864A.852.852 0 0 0 23.5 2a.852.852 0 0 0-.84.864V9.21L7.555 15.894a.87.87 0 0 0-.516.798v18.97L2.5 37.737a.875.875 0 0 0-.426 1.141.83.83 0 0 0 1.108.439l4.704-2.15 15.283 6.764a.83.83 0 0 0 .664 0l15.283-6.764 4.704 2.15a.83.83 0 0 0 1.108-.439.875.875 0 0 0-.426-1.14zm-21.84-26.646v2.144c0 .477.375.864.839.864.464 0 .84-.387.84-.864v-2.144l12.655 5.601L23.5 22.665l-13.495-5.973 12.655-5.601zM13.134 33.82a.831.831 0 0 0-1.108-.44l-3.308 1.514v-16.89l13.941 6.17v17.65L9.976 36.21l2.733-1.25a.875.875 0 0 0 .426-1.14zm11.205 8.005v-17.65l13.94-6.17v16.889l-3.307-1.513a.83.83 0 0 0-1.108.439.875.875 0 0 0 .426 1.14l2.733 1.25-12.684 5.615z"/>
    </g>
</svg>
