<svg xmlns="http://www.w3.org/2000/svg" width="46" height="41" viewBox="0 0 46 41">
    <g fill="none" fill-rule="nonzero">
        <path fill="#ECF8FE" d="M3.25 13.421c5.271 20.27 5.001 21.048 0 21.048-.371-.028-.804.014-1.27.111-5.112 1.068 0 8.242 11.558 4.235 26.337-9.132 6.742-12.663 21.61-4.346 14.866 8.317 5.135-1.891 5.135-5.121 0-3.23 11.488-23.389 0-23.389H24.486C6.815-2.579-.264-.092 3.25 13.421z"/>
        <path fill="#EBD4F8" stroke="#5E77FF" stroke-width=".5" d="M39.615 4.8v15.675l-.07.173-18.27 19.028a2.486 2.486 0 0 1-3.56.006L4.595 26.38a2.543 2.543 0 0 1-.735-1.797c0-.679.261-1.318.734-1.797L23.356 3.603l.179-.075h14.82l2.302-2.335a.884.884 0 0 1 1.262 0 .906.906 0 0 1 0 1.27L39.615 4.8zM24.71 6.628l-1.004 1.026a.405.405 0 0 0 .002.568.386.386 0 0 0 .551-.002l.845-.859a.404.404 0 0 0-.233-.733h-.161zm-3.713 3.795a.406.406 0 0 0 .003.568.386.386 0 0 0 .55-.002l.903-.923a.406.406 0 0 0-.003-.568.384.384 0 0 0-.55.002l-.903.923zm-5.416 5.539a.406.406 0 0 0 .002.568.386.386 0 0 0 .55-.003l.904-.923a.406.406 0 0 0-.002-.568.384.384 0 0 0-.55.002l-.904.924zm-2.708 2.768a.406.406 0 0 0 .002.568.385.385 0 0 0 .55-.002l.904-.923a.406.406 0 0 0-.003-.568.384.384 0 0 0-.55.002l-.903.923zM10.164 21.5a.405.405 0 0 0 .002.568.386.386 0 0 0 .55-.002l.903-.923a.406.406 0 0 0-.003-.569.384.384 0 0 0-.55.003l-.902.923zM7.73 24.951c.104 0 .202-.041.277-.117l.902-.923a.406.406 0 0 0-.002-.568.384.384 0 0 0-.55.002l-.903.923a.406.406 0 0 0 .002.568.386.386 0 0 0 .274.115zm2.94 2.642a.406.406 0 0 0 0-.568l-.907-.92a.384.384 0 0 0-.55 0 .406.406 0 0 0 0 .569l.906.919a.385.385 0 0 0 .55 0zm2.72 2.757a.406.406 0 0 0 0-.568l-.907-.92a.384.384 0 0 0-.55 0 .406.406 0 0 0 0 .569l.906.919a.385.385 0 0 0 .55 0zm2.719 2.759a.407.407 0 0 0 0-.568l-.906-.92a.384.384 0 0 0-.55 0 .406.406 0 0 0 0 .569l.906.919a.385.385 0 0 0 .55 0zm2.719 2.757a.406.406 0 0 0 0-.568l-.906-.92a.384.384 0 0 0-.55 0 .406.406 0 0 0 0 .569l.906.919a.385.385 0 0 0 .55 0zm.012-22.108l.903-.923a.406.406 0 0 0-.003-.568.384.384 0 0 0-.55.002l-.903.923a.406.406 0 0 0 .002.568.386.386 0 0 0 .55-.002zm2.687 21.205a.406.406 0 0 0-.007-.568.386.386 0 0 0-.55.008l-.895.932a.406.406 0 0 0 .007.567.385.385 0 0 0 .551-.007l.894-.932zm2.683-2.794a.407.407 0 0 0-.007-.568.386.386 0 0 0-.55.007l-.895.931a.407.407 0 0 0 .006.568.385.385 0 0 0 .551-.007l.895-.93zm2.683-2.794a.407.407 0 0 0-.007-.568.386.386 0 0 0-.55.007l-.896.931a.407.407 0 0 0 .007.568.385.385 0 0 0 .551-.007l.895-.931zm.169-22.347c0 .222.176.4.39.4h1.283a.395.395 0 0 0 .39-.4c0-.222-.175-.4-.39-.4h-1.282a.395.395 0 0 0-.391.4zm2.514 19.553a.406.406 0 0 0-.007-.568.386.386 0 0 0-.55.008l-.895.931a.406.406 0 0 0 .007.567.385.385 0 0 0 .551-.007l.894-.931zm-.218-15.653c0 1.655 1.327 3 2.955 3 1.629 0 2.955-1.345 2.955-3s-1.326-3-2.955-3c-1.628 0-2.955 1.345-2.955 3zm2.901 12.859a.407.407 0 0 0-.007-.569.386.386 0 0 0-.55.008l-.895.931a.407.407 0 0 0 .006.568.385.385 0 0 0 .551-.007l.895-.931zm2.683-2.795a.406.406 0 0 0-.007-.568.386.386 0 0 0-.551.007l-.895.932a.407.407 0 0 0 .007.568.385.385 0 0 0 .551-.007l.895-.932zm1.608-2.264v-1.3c0-.222-.175-.4-.39-.4a.395.395 0 0 0-.392.4v1.3c0 .222.176.4.391.4a.395.395 0 0 0 .391-.4zm0-3.9v-1.3c0-.222-.175-.4-.39-.4a.395.395 0 0 0-.392.4v1.3c0 .222.176.4.391.4a.395.395 0 0 0 .391-.4z"/>
    </g>
</svg>
