<svg xmlns="http://www.w3.org/2000/svg" width="39" height="39" viewBox="0 0 39 39">
    <g fill="none" fill-rule="nonzero">
        <path fill="#314C8F" d="M39 19.5a19.437 19.437 0 0 1-3.017 10.422 19.59 19.59 0 0 1-7.814 7.05A19.418 19.418 0 0 1 19.5 39c-5.6 0-10.648-2.36-14.205-6.14A19.496 19.496 0 0 1 .83 25.146 19.476 19.476 0 0 1 0 19.5C0 8.73 8.73 0 19.5 0a19.665 19.665 0 0 1 4.813.599c3.39.86 6.424 2.609 8.844 4.982A19.43 19.43 0 0 1 39 19.5z"/>
        <path fill="#0078AA" d="M23 2h13v7H23z"/>
        <path fill="#349CDD" d="M37.632 27.091a19.566 19.566 0 0 1-1.5 2.909H21a107.81 107.81 0 0 0 0-30h3.504v2.17c0 2.794 2.237 5.06 4.996 5.06a4.95 4.95 0 0 0 3.816-1.795 5.076 5.076 0 0 0 1.18-3.265V0H38a107.75 107.75 0 0 0-.957 10.582c-.227 5.506-.03 11.026.59 16.51z"/>
        <path fill="#FFB525" d="M8 7h10v6H8z"/>
        <path fill="#FFE662" d="M21 12.739V26H6V12.739a3.173 3.173 0 0 0 1.463-2.668V4H9.66v2.104a3.75 3.75 0 0 0 1.125 2.678A3.857 3.857 0 0 0 13.5 9.89c2.121 0 3.842-1.696 3.842-3.787V4h2.195v6.071c0 1.116.582 2.099 1.463 2.668z"/>
        <path fill="#FFE662" d="M28 33.87v3.125A19.162 19.162 0 0 1 19.438 39C10.741 39 3.39 33.23 1 25.304 3.69 21.49 8.126 19 13.145 19 21.349 19 28 25.658 28 33.87z"/>
        <path fill="#FFB525" d="M13 19c-4.067 0-7.393 6.187-7.643 14A19.455 19.455 0 0 1 1 25.336C3.657 21.504 8.042 19 13 19z"/>
        <path fill="#FFB525" d="M12 18.884L6 20v-7.274c.905-.568 1.502-1.55 1.502-2.663V4h2.253v2.1c0 1.045.441 1.99 1.155 2.675C7.502 14.805 12 16.137 12 18.884z"/>
        <path fill="#F26065" d="M12 18.286V21H5.392c-1.008 0-1.707-.67-2.079-1.605v-.002c-.608-1.534-.339-3.788.887-4.996 1.972-1.946 7.8 3.89 7.8 3.89z"/>
        <path fill="#E03A68" d="M11 20.176V21H4.914c-.928 0-1.572-.61-1.914-1.463v-.001c.001-2.865 5.21-1.174 8 .64z"/>
        <path fill="#F26065" d="M15 18.286V21h6.608c1.008 0 1.707-.67 2.08-1.605v-.002c.607-1.534.338-3.788-.888-4.996-1.973-1.946-7.8 3.89-7.8 3.89z"/>
        <path fill="#E03A68" d="M15 20.176V21h6.085c.928 0 1.573-.61 1.915-1.463v-.001c-.001-2.865-5.211-1.174-8 .64zM12 19h3v3h-3z"/>
        <g fill="#0078AA">
            <path d="M24.844 18.932c-.438 0-.793-.331-.793-.74v-2.394c0-.41.355-.74.793-.74.439 0 .794.33.794.74v2.393c0 .41-.355.741-.794.741zM28.282 18.932c-.439 0-.794-.331-.794-.74v-2.394c0-.41.355-.74.794-.74.438 0 .794.33.794.74v2.393c0 .41-.356.741-.794.741zM31.72 18.932c-.44 0-.795-.331-.795-.74v-2.394c0-.41.356-.74.794-.74.438 0 .794.33.794.74v2.393c0 .41-.356.741-.794.741zM35.157 18.932c-.44 0-.794-.331-.794-.74v-2.394c0-.41.355-.74.793-.74.439 0 .794.33.794.74v2.393c0 .41-.355.741-.793.741z"/>
        </g>
    </g>
</svg>
