<svg xmlns="http://www.w3.org/2000/svg" xmlns:xlink="http://www.w3.org/1999/xlink" width="36" height="36" viewBox="0 0 36 36">
    <defs>
        <path id="a" d="M.004 0H36v36H.004z"/>
        <path id="c" d="M.003.039h10.979V12H.003z"/>
        <path id="e" d="M.003.033h12.988v13.929H.003z"/>
        <path id="g" d="M.01 0h12.94v15.997H.01z"/>
    </defs>
    <g fill="none" fill-rule="evenodd">
        <mask id="b" fill="#fff">
            <use xlink:href="#a"/>
        </mask>
        <path fill="#C8CBFF" d="M36 18c0 9.941-8.059 18-18 18S0 27.941 0 18 8.059 0 18 0s18 8.059 18 18z" mask="url(#b)"/>
        <g mask="url(#b)">
            <g transform="translate(17 19)">
                <mask id="d" fill="#fff">
                    <use xlink:href="#c"/>
                </mask>
                <path fill="#FDDA8E" d="M10.552 11.503a1.672 1.672 0 0 0-.02-2.262L2.03.04.003 2.323l8.5 9.202c.572.618 1.447.656 2.049-.022" mask="url(#d)"/>
                <path fill="#FBD271" d="M9.25 10.06L1.032 1.163.003 2.323l8.501 9.202c.571.618 1.446.656 2.048-.022a1.67 1.67 0 0 0 .428-1.188c-.565.372-1.253.261-1.73-.255" mask="url(#d)"/>
            </g>
            <path fill="#F8C747" d="M22.402 27c1.598-.156 2.772-.43 3.598-.7L19.088 19 17 21.295 22.402 27"/>
            <path fill="#F5B935" d="M25 26.724L18.16 20 17 21.187 22.914 27c.787-.071 1.48-.168 2.086-.276"/>
            <path fill="#D3D1CD" d="M10 14.007L12.922 11s3.57 3.144 6.078 6.857L16.917 20C13.187 17.544 10 14.007 10 14.007"/>
            <g transform="translate(6 8)">
                <mask id="f" fill="#fff">
                    <use xlink:href="#e"/>
                </mask>
                <path fill="#CAC7C4" d="M6.08 5.844L4.391 7.56s3.445 3.778 7.475 6.402l1.124-1.144-6.912-6.974" mask="url(#f)"/>
                <path fill="#E98B9B" d="M.387 3.326L3.225.439a1.359 1.359 0 0 1 1.97.034c.79.862 1.834 2.228 2.355 3.875L4.392 7.56c-1.661-.486-3.05-1.5-3.93-2.271a1.35 1.35 0 0 1-.075-1.963" mask="url(#f)"/>
                <path fill="#E15C79" d="M6.08 5.844C4.192 4.7 2.756 2.434 2.207 1.474L.388 3.326a1.35 1.35 0 0 0 .074 1.963c.88.771 2.269 1.785 3.93 2.27L6.08 5.845" mask="url(#f)"/>
            </g>
            <path fill="#E15C79" d="M12 12.503L9.583 10.1a.34.34 0 0 0-.485.004.352.352 0 0 0 .005.493L11.52 13l.48-.497"/>
            <path fill="#DC3A5C" d="M11 13.503L8.583 11.1a.34.34 0 0 0-.485.004.352.352 0 0 0 .005.493L10.52 14l.48-.497"/>
            <path fill="#353439" d="M29 21H11l.94 2.482c.302.798.916 1.41 1.677 1.672C14.765 25.55 16.78 26 20 26c3.445 0 5.511-.516 6.612-.928a2.387 2.387 0 0 0 1.379-1.407L29 21"/>
            <path fill="#242328" d="M29 21h-4v4c.811-.147 1.42-.322 1.858-.48a2.102 2.102 0 0 0 1.237-1.217L29 21"/>
            <path fill="#514F54" d="M20 17c4.97 0 9 1.567 9 3.5S24.97 24 20 24s-9-1.567-9-3.5 4.03-3.5 9-3.5"/>
            <path fill="#353439" d="M25.241 23C28.085 22.446 30 21.405 30 20.212 30 18.438 25.762 17 20.534 17c-1.25 0-2.442.082-3.534.232 1.904 4.067 6.23 5.411 8.241 5.768"/>
            <path fill="#E98B9B" d="M20.5 22c-1.952 0-3.852-.255-5.35-.717a9.972 9.972 0 0 1-.851-.303c-.399-.164-.399-.796 0-.96.245-.101.528-.203.851-.303 1.498-.462 3.398-.717 5.35-.717 1.952 0 3.851.255 5.35.717.323.1.606.202.851.303.399.164.399.796 0 .96-.245.101-.528.203-.851.303-1.499.462-3.398.717-5.35.717"/>
            <path fill="#E15C79" d="M26.698 20.022a10.12 10.12 0 0 0-.859-.303c-1.511-.464-3.428-.719-5.398-.719-.832 0-1.654.046-2.441.134A10.78 10.78 0 0 0 20.989 22c1.774-.043 3.48-.291 4.85-.711.326-.1.612-.203.86-.304.402-.164.402-.798 0-.963"/>
            <path fill="#242328" d="M17.893 7l-1.377 1.13c-1.35 1.11.042 5.276 3.11 9.306 3.066 4.031 6.647 6.4 7.997 5.291L29 21.597 17.893 7"/>
            <g transform="translate(17 6)">
                <mask id="h" fill="#fff">
                    <use xlink:href="#g"/>
                </mask>
                <path fill="#171619" d="M10.049 11.768l-2.832 3.169c1.603 1.008 2.974 1.353 3.715.792l1.468-1.112-2.351-2.85" mask="url(#h)"/>
                <path fill="#353439" d="M9.086 5.47c3.27 3.963 4.754 8.058 3.315 9.148-1.44 1.09-5.256-1.238-8.526-5.2C.605 5.454-.879 1.358.56.268 2-.821 5.816 1.508 9.086 5.47" mask="url(#h)"/>
                <path fill="#242328" d="M8.366 13.618c1.739 1.166 3.245 1.598 4.034 1 1.302-.987.211-4.433-2.43-8.015.256 4.296-1.603 7.014-1.604 7.015" mask="url(#h)"/>
            </g>
        </g>
    </g>
</svg>
