<svg xmlns="http://www.w3.org/2000/svg" width="39" height="9" viewBox="0 0 39 9">
    <path fill-rule="evenodd" d="M2.115 1.826c.034-.584.961-.86 1.373-.892 7.465-.567 12.185.794 12.887 1.33.703.534-.133 3.468-1.037 4.635-.904 1.167-4.402 1.604-8.57 1.053-4.167-.55-4.284-1.523-4.486-1.96-.2-.439-.2-3.583-.167-4.166m19.583.437C22.4 1.728 27.12.367 34.585.934c.412.032 1.339.308 1.372.892.034.583.034 3.727-.167 4.165-.2.438-.318 1.41-4.485 1.961-4.168.551-7.666.114-8.57-1.053-.903-1.167-1.74-4.1-1.037-4.636M1.984 7.615c.9.367 9.095 2.066 12.604.689 3.51-1.378 1.6-4.733 4.446-4.64 2.845-.093.935 3.262 4.444 4.64 3.51 1.377 11.699-.322 12.6-.69.9-.366.856-2.341 1.14-2.938.285-.597 1.562-1.01 1.562-1.01V.495c-1.873-.872-11.342-.413-13.618 0-2.276.414-5.991 1.24-5.991 1.24S15.608.91 13.331.497C11.057.084 1.338-.375 0 .497v3.17s.923.413 1.207 1.01c.285.597-.124 2.572.777 2.939"/>
</svg>
