<svg xmlns="http://www.w3.org/2000/svg" xmlns:xlink="http://www.w3.org/1999/xlink" width="38" height="38" viewBox="0 0 38 38">
    <defs>
        <path id="a" d="M36 18c0 9.941-8.059 18-18 18S0 27.941 0 18 8.059 0 18 0s18 8.059 18 18z"/>
    </defs>
    <g fill="none" fill-rule="evenodd" transform="translate(1 1)">
        <mask id="b" fill="#fff">
            <use xlink:href="#a"/>
        </mask>
        <use fill="#FFF" stroke="#E3E3E3" stroke-width=".5" xlink:href="#a"/>
        <g mask="url(#b)">
            <path fill="#FAC176" d="M25.512 22.745c-.556-.79-1.016-.978-2.941.057L18.73 25.2c-.437.239-1.141.36-1.919.422 0 .011.004.02.004.03 0 .25-.196.451-.44.451H8.85c-1.326 0-1.326.682-1.326.905 0 .25-.2.453-.444.453a.447.447 0 0 1-.443-.453c0-1.133.828-1.808 2.213-1.808h6.301c.236-.252.275-.643-.116-1.238-.623-.95-1.697-1.489-2.814-1.489h-1.726c-1.005 0-2-.304-2.801-.923-1.875-1.444-5.482-1.324-5.482-1.324v10.851h6.195c.884 0 1.768-.068 2.64-.203l5.768-.896c.197 0 .39-.025.575-.066h.009c.466-.069.892-.31 1.234-.643l6.724-5.352a.88.88 0 0 0 .154-1.172"/>
            <path fill="#2C91D0" d="M13.596 25.657c-.16-.002-.313-.004-.445-.004 0 0 .186.01.445.004"/>
            <path fill="#E2AC69" d="M6.638 27.008c0 .25.199.453.443.453a.449.449 0 0 0 .444-.453c0-.223 0-.903 1.326-.903h7.525c.244 0 .44-.203.44-.452 0-.012-.004-.02-.004-.031-1.102.086-2.351.048-3.216.035-.261.009-.445-.004-.445-.004.132 0 .285.002.445.004.48-.016 1.217-.097 1.556-.457h-6.3c-1.386 0-2.214.675-2.214 1.808"/>
            <path fill="#E4AF18" d="M21.685 10.73c0 1.998-1.584 3.618-3.54 3.618-1.955 0-3.542-1.62-3.542-3.619 0-1.995 1.587-3.616 3.542-3.616 1.956 0 3.54 1.62 3.54 3.616M9.65 22.398c.28.049.562.078.846.078h1.726c.281 0 .558.032.828.099a3.625 3.625 0 0 0 1.996-3.252c0-1.999-1.584-3.62-3.54-3.62-1.955 0-3.541 1.621-3.541 3.62 0 1.3.676 2.437 1.685 3.075"/>
            <path fill="#FCC62D" d="M13.277 19.323c0 .997-.794 1.808-1.77 1.808-.98 0-1.77-.81-1.77-1.808 0-1 .79-1.811 1.77-1.811.976 0 1.77.81 1.77 1.81M19.915 10.73c0 1-.793 1.81-1.77 1.81-.979 0-1.77-.81-1.77-1.81 0-.998.791-1.809 1.77-1.809.977 0 1.77.81 1.77 1.808"/>
            <path fill="#556180" d="M0 32.435h2.213V18.857H0z"/>
        </g>
    </g>
</svg>
