<svg xmlns="http://www.w3.org/2000/svg" xmlns:xlink="http://www.w3.org/1999/xlink" width="40" height="40" viewBox="0 0 40 40">
    <defs>
        <path id="a" d="M.005 0H40v40H.005z"/>
    </defs>
    <g fill="none" fill-rule="evenodd">
        <g>
            <mask id="b" fill="#fff">
                <use xlink:href="#a"/>
            </mask>
            <path fill="#8FA6B3" d="M40 20c0 11.046-8.954 20-20 20S0 31.046 0 20 8.954 0 20 0s20 8.954 20 20z" mask="url(#b)"/>
        </g>
        <path fill="#303A59" d="M3.2 31.2C6.751 36.494 12.949 40 20 40s13.249-3.506 16.8-8.8H3.2z"/>
        <path fill="#FFE2D9" d="M20.282 0c-3.347 0-6.502.828-9.277 2.29L8 10.26 23.046 31.2 32 27.512 22.238 7.785A16.16 16.16 0 0 1 20.564.619V.004C20.47.002 20.376 0 20.282 0z"/>
        <path fill="#FFCFC2" d="M11.005 2.252L8 10.012 23.046 30.4 32 26.81l-1.818-3.578c-.375.055-.739.17-1.072.347a3.27 3.27 0 0 0-1.184 1.057l-.205.303a.936.936 0 0 1-.776.409 4.756 4.756 0 0 1-2.505-.71 4.65 4.65 0 0 1-1.735-1.916L12.407 1.6c-.477.2-.945.418-1.402.652z"/>
        <path fill="#E32828" d="M6.4 9.6v22.594c0 .776.667 1.406 1.49 1.406s1.49-.63 1.49-1.406V25.46c0-3.033 2.606-5.491 5.82-5.491V9.6H6.4z"/>
        <path fill="#AA1E1E" d="M7.807 9.6H6.4v22.594c0 .776.667 1.406 1.49 1.406.255 0 .494-.06.704-.167-.468-.237-.787-.703-.787-1.24v-15.51c.1.098.203.195.309.29l.082.073a31.013 31.013 0 0 1 3.67 3.914 6.032 6.032 0 0 1 3.332-.991V9.6H7.807z"/>
        <path fill="#FF3345" d="M40 32.062a1.55 1.55 0 0 1-1.56 1.538H22.433a5.722 5.722 0 0 1-3.358-1.085 5.592 5.592 0 0 1-2.054-2.833 31.278 31.278 0 0 0-8.434-13.335l-.078-.073a9.126 9.126 0 0 1-1.752-11.13A20.162 20.162 0 0 1 10.94 2.4l10.314 21.19a5.826 5.826 0 0 0 2.17 2.4c.922.572 2.003.892 3.135.892.706 0 1.365-.349 1.757-.927l.205-.304a2.129 2.129 0 0 1 3.01-.52l7.834 5.693A1.539 1.539 0 0 1 40 32.062z"/>
        <path fill="#E32828" d="M19.385 29.615a31.89 31.89 0 0 0-8.438-13.566l-.078-.074C7.835 13.085 6.943 6.906 8.657 3.2c-.661.447-1.296.932-1.898 1.453C4.756 8.292 5.355 12.97 8.51 15.975l.078.074a31.89 31.89 0 0 1 8.438 13.566 5.684 5.684 0 0 0 2.056 2.882c.951.7 2.12 1.103 3.36 1.103H24.8a5.661 5.661 0 0 1-3.36-1.103 5.684 5.684 0 0 1-2.055-2.882z"/>
    </g>
</svg>
