<svg xmlns="http://www.w3.org/2000/svg" width="46" height="46" viewBox="0 0 46 46">
    <g fill="none" fill-rule="evenodd">
        <path fill="#ECF8FE" fill-rule="nonzero" d="M16.869 4.013c3.159 6.538 9.01-1.15 9.602-.445.592.706.86 20.265 11.488 16.292 7.087-2.649 8.94 1.641 5.563 12.87-1.347 5.675-3.424 6.839-6.233 3.492-4.212-5.02-9.697-2.717-14.648 1.437-4.95 4.154-12.535-1.244-10.827-7.356 1.708-6.112 5.15 4.305-3.6-9.838C-.54 6.322 13.71-2.525 16.868 4.013z"/>
        <g transform="translate(9 3)">
            <circle cx="17" cy="17" r="16" fill="#E5F9FF"/>
            <circle cx="15.5" cy="16.5" r="11.5" fill="#99E7FF"/>
            <circle cx="17.5" cy="16.5" r="8.5" fill="#CCF3FF"/>
            <circle cx="16.5" cy="16.5" r="5.5" fill="#FFF"/>
            <path fill="#EAD2F8" d="M21.419 34.685c-1.19-.19-2.22.71-2.22 1.847v-19.66c0-1.137-1.028-2.037-2.218-1.846-.935.15-1.581 1.014-1.581 1.946v15.815c0-1.137-1.029-2.037-2.22-1.846-.933.15-1.58 1.014-1.58 1.946v1.773c0-1.138-1.029-2.038-2.22-1.847-.933.15-1.58 1.014-1.58 1.947v1.772c0-1.137-1.029-2.038-2.22-1.847C4.648 34.835 4 35.7 4 36.632v6.007c0 .918.114 1.833.34 2.724l1.22 4.806c.226.891.34 1.806.34 2.724V59h15.2v-5.32c0-.82.09-1.637.271-2.437l1.357-6.018c.181-.8.272-1.617.272-2.437v-6.156c0-.933-.647-1.797-1.581-1.947z"/>
            <g fill="#5D5360">
                <path d="M6.496 50.14l-1.207-4.79c-.223-.889-.336-1.8-.336-2.716v-5.987c0-.701.365-1.363.94-1.71a1.893 1.893 0 0 0-1.35-.213c-.882.186-1.47 1.028-1.47 1.923v5.987c0 .915.113 1.827.337 2.716l1.206 4.79c.223.888.337 1.8.337 2.715v6.087h1.88v-6.087c0-.915-.114-1.827-.337-2.715zM7.772 37.48c.52 0 .94-.417.94-.932v-3.723c-.104 0-.208-.002-.316.016-.924.149-1.564 1.01-1.564 1.94v1.767c0 .515.421.933.94.933z"/>
            </g>
            <path fill="#5E77FF" fill-rule="nonzero" d="M21.648 34.206a2.945 2.945 0 0 0-1.489.149V23.252C22.48 22.204 24 19.937 24 17.428 24 13.884 21.013 11 17.34 11c-3.671 0-6.659 2.884-6.659 6.428 0 2.51 1.52 4.776 3.84 5.824v7.396a2.944 2.944 0 0 0-1.488-.149c-1.092.172-1.966.998-2.252 2.042a2.94 2.94 0 0 0-1.589-.188c-1.092.171-1.965.997-2.252 2.041a2.939 2.939 0 0 0-1.588-.188C4.012 34.416 3 35.613 3 36.99v5.946c0 .98.125 1.958.37 2.908L4.604 50.6c.21.812.317 1.65.317 2.487v6.045c0 .479.403.867.899.867s.898-.388.898-.867v-6.045c0-.98-.125-1.958-.37-2.908l-1.233-4.758a9.925 9.925 0 0 1-.317-2.487V36.99c0-.526.37-.997.843-1.071.31-.049.608.03.84.22.23.188.36.462.36.752 0 .48.403.867.899.867s.898-.388.898-.867v-1.754c0-.527.37-.997.844-1.072.309-.048.607.03.84.22.229.189.36.463.36.753 0 .478.402.867.899.867.496 0 .898-.389.898-.867v-1.755c0-.526.37-.997.843-1.071.31-.049.608.03.84.22.23.188.36.462.36.752 0 .479.403.867.9.867.495 0 .897-.388.897-.867V17.527c0-.527.371-.997.844-1.072.31-.048.608.03.84.22.229.189.36.463.36.753V36.89c0 .48.403.867.899.867s.898-.388.898-.867c0-.29.131-.564.36-.752.233-.19.531-.269.84-.22.473.074.844.545.844 1.071v6.095c0 .746-.085 1.495-.253 2.224l-1.372 5.958a11.605 11.605 0 0 0-.295 2.6v5.267c0 .479.402.867.898.867s.898-.388.898-.867v-5.267c0-.747.085-1.495.253-2.224l1.372-5.958c.196-.852.296-1.727.296-2.6v-6.095c0-1.376-1.011-2.572-2.352-2.783zm-4.774-19.462c-1.34.21-2.352 1.407-2.352 2.783v3.726c-1.258-.866-2.044-2.283-2.044-3.825 0-2.588 2.182-4.694 4.863-4.694 2.681 0 4.863 2.106 4.863 4.694 0 1.542-.786 2.959-2.044 3.825v-3.825c0-.8-.362-1.555-.994-2.073a2.902 2.902 0 0 0-2.292-.611z"/>
            <path fill="#000" d="M.75 14.995A.98.98 0 0 0 .847 15c.424 0 .79-.276.839-.649.064-.487.162-.976.291-1.452.107-.393-.174-.787-.63-.88-.454-.092-.909.152-1.016.545a12.35 12.35 0 0 0-.326 1.622c-.052.401.281.764.745.81zM30.116 9.558c.17.28.525.442.894.442.143 0 .289-.024.426-.076.494-.185.703-.648.467-1.035a14.34 14.34 0 0 0-1.076-1.527c-.292-.362-.903-.47-1.365-.242-.463.229-.6.708-.309 1.07.354.44.678.9.963 1.368zM5.824 6c.202 0 .405-.08.564-.24.403-.409.833-.796 1.277-1.15.366-.292.444-.85.174-1.247-.27-.397-.786-.481-1.153-.189-.495.395-.975.827-1.425 1.283a.945.945 0 0 0-.039 1.26.794.794 0 0 0 .602.283zM2.537 9.916c.141.057.291.084.44.084.356 0 .7-.157.872-.429.294-.466.627-.924.988-1.36.298-.359.175-.843-.274-1.081-.45-.238-1.056-.14-1.354.22a14.65 14.65 0 0 0-1.104 1.518c-.243.385-.05.854.432 1.048zM32.019 13.882c.12.478.207.967.26 1.455.041.378.417.663.858.663l.08-.003c.474-.037.823-.393.78-.794-.06-.545-.158-1.091-.291-1.624-.1-.395-.557-.647-1.023-.563-.466.084-.763.472-.664.866zM21.527 2.417c.48.145.955.32 1.414.52.1.042.204.063.307.063.287 0 .56-.16.686-.428a.715.715 0 0 0-.378-.959 14.701 14.701 0 0 0-1.58-.58.756.756 0 0 0-.941.475.72.72 0 0 0 .492.91zM16.014 1.977A16.815 16.815 0 0 1 18.033 2c.504 0 .93-.395.965-.912a.975.975 0 0 0-.9-1.044 18.723 18.723 0 0 0-2.175-.023A.975.975 0 0 0 15 1.045a.973.973 0 0 0 1.013.932zM10.749 3a.755.755 0 0 0 .291-.058c.461-.193.939-.36 1.42-.497a.735.735 0 0 0 .51-.913.75.75 0 0 0-.927-.503 14.44 14.44 0 0 0-1.586.555.733.733 0 0 0-.398.966c.121.281.398.45.69.45zM26.323 4.582c.441.36.866.753 1.265 1.167a.803.803 0 0 0 .58.251.805.805 0 0 0 .595-.266.922.922 0 0 0-.013-1.248c-.445-.461-.92-.9-1.41-1.302a.8.8 0 0 0-1.167.16.92.92 0 0 0 .15 1.238zM1.976 20.096a11.08 11.08 0 0 1-.3-1.45c-.054-.402-.473-.689-.934-.64-.462.047-.791.411-.736.813.075.544.187 1.09.335 1.62.093.336.437.561.817.561a.961.961 0 0 0 .198-.02c.452-.095.73-.49.62-.884zM26.642 28.227c-.409.402-.844.78-1.292 1.127-.37.285-.461.849-.204 1.258a.795.795 0 0 0 .671.388.759.759 0 0 0 .466-.162c.5-.386.985-.809 1.442-1.257a.973.973 0 0 0 .07-1.276.762.762 0 0 0-1.153-.078zM31.495 24.094c-.467-.206-1.05-.063-1.302.32-.305.462-.648.916-1.018 1.347-.305.356-.2.846.234 1.096.168.097.36.143.551.143.303 0 .6-.117.788-.335.413-.481.796-.988 1.137-1.505.252-.382.077-.86-.39-1.066zM7.177 31a.802.802 0 0 0 .665-.368c.268-.399.187-.958-.18-1.25a14.588 14.588 0 0 1-1.28-1.144.777.777 0 0 0-1.163.049.95.95 0 0 0 .045 1.264c.452.454.932.884 1.429 1.277a.777.777 0 0 0 .484.172zM22.76 31.066c-.057.024-.115.048-.172.07-.47.189-.706.744-.53 1.241a.912.912 0 0 0 .851.623c.107 0 .215-.02.32-.062.065-.026.13-.052.193-.079.467-.193.698-.752.515-1.247-.182-.495-.709-.74-1.176-.546zM4.027 27c.187 0 .375-.043.541-.132.447-.24.566-.727.267-1.085a13.2 13.2 0 0 1-.995-1.357c-.245-.384-.831-.537-1.31-.34-.478.197-.668.668-.423 1.052.331.52.705 1.03 1.11 1.515.188.225.497.347.81.347zM33.29 19.007c-.451-.056-.869.223-.933.624-.077.486-.188.974-.33 1.448-.116.391.147.793.587.896.071.017.142.025.212.025.365 0 .7-.217.797-.546.158-.53.282-1.074.369-1.618.064-.4-.25-.772-.702-.829z"/>
            <path fill="#5E77FF" d="M16.5 4C9.607 4 4 9.5 4 16.26c0 4.365 2.396 8.434 6.253 10.62a.914.914 0 0 0 1.235-.323.878.878 0 0 0-.33-1.212c-3.3-1.87-5.35-5.352-5.35-9.085 0-5.782 4.797-10.487 10.692-10.487 5.895 0 10.692 4.705 10.692 10.487 0 3.732-2.049 7.212-5.346 9.083a.878.878 0 0 0-.33 1.212.914.914 0 0 0 1.235.323C26.606 24.691 29 20.623 29 16.26 29 9.5 23.392 4 16.5 4z"/>
        </g>
    </g>
</svg>
