<svg xmlns="http://www.w3.org/2000/svg" width="46" height="46" viewBox="0 0 46 46">
    <g fill="none" fill-rule="evenodd">
        <path fill="#ECF8FE" fill-rule="nonzero" d="M9.833 18.255C14.975 19.948 15.05 11 15.723 11s11.742 11.745 14.509 1.587c1.845-6.772 4.37-7.387 7.577-1.843 4.991 6.956 5.891 10.434 2.7 10.434-4.786 0-7.51 3.513-7.51 9.65 0 6.137-6.581 8.36-9.199 3.386-2.618-4.973 1.264-3.003-10.758-5.27-12.022-2.267-8.35-12.38-3.209-10.688z"/>
        <path fill="#FFF" d="M6.557 25l4.837.462.978 3 3.932-1.509 9.425 3.362 2.94 2.513.72 1.125 8.996-2 2.004 1.432-.719 2.47-13.94 5.672-4.34.426-8.257-4-.76 1.904-6.653-.161v-4.56L5 25.953z"/>
        <g fill="#5E77FF">
            <path fill-rule="nonzero" d="M39.736 31.897c-.686-1.564-2.513-2.258-4.09-1.745l-6.565 2.13a3.172 3.172 0 0 0-1.791-2.615l-8.99-4.376a5.539 5.539 0 0 0-3.912-.355l-2.682.747C11.466 24.165 10.116 23 8.492 23H4.084C3.485 23 3 23.473 3 24.056v14.777c0 .583.485 1.056 1.084 1.056h6.576c.599 0 1.084-.473 1.084-1.056v-.566l5.604 2.729a9.972 9.972 0 0 0 8.203.234l12.477-5.177c1.65-.688 2.416-2.548 1.708-4.156zm-30.16 5.88H5.168V25.112h3.324c.598 0 1.084.474 1.084 1.056v11.61zm27.6-3.665L24.7 39.29a7.751 7.751 0 0 1-6.382-.181l-6.573-3.2v-8.04l3.24-.902a3.321 3.321 0 0 1 2.347.213l8.99 4.377c.534.26.752.895.484 1.416-.272.531-.928.728-1.454.472l-5.364-2.611c-1.368-.666-3.051-.303-4.001.865a1.037 1.037 0 0 0 .175 1.482c.469.363 1.151.286 1.523-.17.317-.39.878-.51 1.334-.289l5.363 2.611a3.322 3.322 0 0 0 3.63-.477l8.32-2.7c.542-.177 1.184.052 1.412.572.24.543-.026 1.16-.566 1.385z"/>
            <path d="M27 13a1 1 0 1 1-2 0 1 1 0 0 1 2 0zM31 18a1 1 0 1 1-2 0 1 1 0 0 1 2 0zM30.707 12.293a1 1 0 0 0-1.414 0l-4 4a1 1 0 1 0 1.414 1.414l4-4a1 1 0 0 0 0-1.414z"/>
            <path fill-rule="nonzero" d="M17.391 18.019l10.423 8.741c.19.16.42.24.651.24.23 0 .459-.08.649-.237l10.492-8.742c.347-.29.482-.777.336-1.216a1.047 1.047 0 0 0-.984-.732H35.76v-9.98c0-.604-.467-1.093-1.042-1.093H22.212c-.576 0-1.043.49-1.043 1.093v9.98h-3.127c-.442 0-.837.293-.983.73-.147.439-.013.926.332 1.216zm4.82.24c.576 0 1.043-.49 1.043-1.094v-9.98h10.423v9.98c0 .604.466 1.093 1.042 1.093h1.252l-7.504 6.251-7.453-6.25h1.198z"/>
        </g>
    </g>
</svg>
