<svg xmlns="http://www.w3.org/2000/svg" width="462" height="362" viewBox="0 0 462 362">
    <g fill="none" fill-rule="evenodd">
        <path fill="#3079ED" d="M462 361.882H177.907c-11.783-17.998-19.915-38.466-21.097-59.844-.974-17.893 2.897-35.682 3.365-53.575.454-17.92-3.274-37.27-16.342-49.493-14.355-13.407-37.946-16.424-47.494-33.576-11.341-20.338 3.91-49.375-10.432-67.724-8.457-10.806-23.565-12.938-36.413-17.71C24.331 70.596 5.82 47.072 0 21h36.582c4.624 9.402 10.47 18.153 19.771 26.19 18.278 15.812 47.17 20.988 60.095 42.626 11.172 18.713 5.222 44.213 16.875 62.626 18.785 29.727 68.11 21.444 91.636 47.568 10.263 11.379 13.562 27.217 20.5 40.884 12.91 25.475 38.712 42.848 66.33 50.039 27.605 7.178 49.934-.766 77.799-6.878 6.391-1.404 65.904-13.082 72.412-14.603v92.43z"/>
        <path fill="#5C468A" d="M214.408 327.89c5.057 0 9.157 4.104 9.157 9.166 0 5.061-4.1 9.164-9.157 9.164-5.056 0-9.156-4.103-9.156-9.164 0-5.062 4.1-9.166 9.156-9.166"/>
        <path fill="#4A357F" d="M397.452 251.167a5.136 5.136 0 0 1 5.132 5.14 5.135 5.135 0 0 1-5.132 5.139 5.137 5.137 0 0 1-5.134-5.14c0-2.837 2.3-5.139 5.134-5.139M194.797 83.418c2.835 0 5.134 2.3 5.134 5.14 0 2.838-2.299 5.138-5.134 5.138a5.136 5.136 0 0 1-5.133-5.139 5.136 5.136 0 0 1 5.133-5.139M36.311 88.62c2.836 0 5.134 2.3 5.134 5.139a5.136 5.136 0 0 1-5.134 5.139 5.137 5.137 0 0 1-5.133-5.14c0-2.838 2.299-5.138 5.133-5.138M390.218 231.662c3.861 0 6.992 3.134 6.992 7s-3.13 7-6.992 7a6.997 6.997 0 0 1-6.994-7c0-3.866 3.131-7 6.994-7"/>
        <path fill="#5C468A" d="M391.518 183.548a6.996 6.996 0 0 1 6.992 7 6.997 6.997 0 0 1-6.992 7 6.997 6.997 0 0 1-6.995-7c0-3.867 3.131-7 6.995-7"/>
        <path fill="#4A357F" d="M51.161 102.924a6.996 6.996 0 0 1 6.993 7c0 3.866-3.13 7-6.993 7a6.996 6.996 0 0 1-6.993-7c0-3.866 3.131-7 6.993-7M131.704 236.863a6.996 6.996 0 0 1 6.993 7 6.997 6.997 0 0 1-6.993 7.001 6.998 6.998 0 0 1-6.994-7c0-3.867 3.132-7 6.994-7M133.563 218.658a4.958 4.958 0 0 1 4.955 4.96 4.958 4.958 0 0 1-4.955 4.96 4.958 4.958 0 0 1-4.956-4.96c0-2.74 2.22-4.96 4.956-4.96"/>
        <path fill="#5C468A" d="M219.597 274.574a6.553 6.553 0 0 1 6.548 6.557 6.552 6.552 0 0 1-6.548 6.555 6.551 6.551 0 0 1-6.55-6.555c0-3.62 2.93-6.557 6.55-6.557"/>
        <path fill="#4A357F" d="M314.427 192.65a6.553 6.553 0 0 1 6.55 6.557 6.553 6.553 0 0 1-6.55 6.555 6.552 6.552 0 0 1-6.548-6.555 6.552 6.552 0 0 1 6.548-6.557"/>
        <path fill="#139A91" d="M311.304 308.686H207.713c-5.664 0-10.255-4.596-10.255-10.264V114.49c0-5.669 4.59-10.266 10.255-10.266h103.591c5.664 0 10.255 4.597 10.255 10.266v183.932c0 5.668-4.59 10.264-10.255 10.264"/>
        <path fill="#2BB3A9" d="M309.149 106.825H209.114c-4.284 0-7.759 3.477-7.759 7.766v181.6c0 4.288 3.475 7.765 7.76 7.765h100.034c4.286 0 7.76-3.477 7.76-7.766V114.591c0-4.289-3.474-7.766-7.76-7.766"/>
        <path fill="#4A357F" d="M207.85 121.13v170.19c0 3.961 3.218 7.179 7.19 7.179h89.59a7.18 7.18 0 0 0 7.185-7.179V121.13H207.85"/>
        <path fill="#139A91" d="M270.298 116.513h-20.586c-.879 0-1.59-.713-1.59-1.593s.711-1.593 1.59-1.593h20.586c.88 0 1.591.713 1.591 1.593s-.712 1.593-1.591 1.593"/>
        <path fill="#E9DDB8" d="M207.85 124.302h103.965v-3.173H207.85zM193.046 165.615h-3.07a6.81 6.81 0 0 1-6.808-6.812v-5.164h16.684v5.164a6.81 6.81 0 0 1-6.806 6.812"/>
        <path fill="#C4437F" d="M211.232 165.615h-4.37a6.81 6.81 0 0 1-6.806-6.812v-5.164h17.982v5.164a6.81 6.81 0 0 1-6.806 6.812"/>
        <path fill="#E9DDB8" d="M228.25 165.615h-3.203c-3.756 0-6.804-3.05-6.804-6.812v-5.164h16.812v5.164a6.81 6.81 0 0 1-6.805 6.812"/>
        <path fill="#C4437F" d="M244.239 165.615h-2.302a6.81 6.81 0 0 1-6.806-6.812v-5.164h15.913v5.164a6.81 6.81 0 0 1-6.805 6.812"/>
        <path fill="#F5EED3" d="M206.625 125.03l-23.457 29.462h75.438V125.03h-51.98"/>
        <path fill="#E16099" d="M216.971 125.03l-16.915 29.458h58.757V125.03H216.97"/>
        <path fill="#F5EED3" d="M229.356 125.03l-11.113 29.458h40.774V125.03h-29.66"/>
        <path fill="#E16099" d="M240.827 125.03l-5.696 29.458h23.962V125.03h-18.266"/>
        <path fill="#E9DDB8" d="M250.72 153.639v6.148c0 3.218 3.562 5.828 7.956 5.828h.182c4.395 0 7.957-2.61 7.957-5.828v-6.148H250.72M325.077 165.615h3.07a6.81 6.81 0 0 0 6.808-6.812v-5.164H318.27v5.164a6.81 6.81 0 0 0 6.806 6.812"/>
        <path fill="#C4437F" d="M306.89 165.615h4.37a6.81 6.81 0 0 0 6.806-6.812v-5.164h-17.982v5.164a6.81 6.81 0 0 0 6.806 6.812"/>
        <path fill="#E9DDB8" d="M290.002 165.615h3.201a6.81 6.81 0 0 0 6.806-6.812v-5.164h-16.813v5.164a6.81 6.81 0 0 0 6.806 6.812"/>
        <path fill="#C4437F" d="M274.412 165.615h2.302a6.81 6.81 0 0 0 6.807-6.812v-5.164h-15.914v5.164a6.808 6.808 0 0 0 6.805 6.812"/>
        <path fill="#F5EED3" d="M311.796 125.03h-51.983v29.462h75.44l-23.457-29.462"/>
        <path fill="#E16099" d="M301.657 125.03h-41.844v29.458h58.76l-16.916-29.458"/>
        <path fill="#F5EED3" d="M259.813 125.03v29.458h40.776l-11.114-29.458h-29.662"/>
        <path fill="#E16099" d="M259.813 125.03v29.458h23.965l-5.696-29.458h-18.269"/>
        <path fill="#F5EED3" d="M253.02 125.03l-2.3 29.458h16.095l-2.302-29.458H253.02"/>
        <path fill="#C4437F" d="M216.944 124.302h12.1v-3.173h-12.1zM288.393 124.302h12.182v-3.173h-12.182zM240.327 124.302h12.52v-3.173h-12.52zM265.01 124.302h12.521v-3.173h-12.522z"/>
        <path fill="#5C468A" d="M215.645 204.463h24.598v-28.718h-24.598zM246.822 204.463h24.597v-28.718h-24.597z"/>
        <path fill="#E16099" d="M250.74 177.046l.407.827.912.132-.659.644.156.909-.816-.43-.815.43.155-.909-.66-.644.911-.132.41-.827M254.636 177.046l.408.827.912.132-.66.644.156.909-.816-.43-.816.43.156-.909-.658-.644.912-.132.406-.827M259.833 177.046l.409.827.91.132-.66.644.156.909-.815-.43-.814.43.155-.909-.66-.644.912-.132.407-.827M263.731 177.046l.407.827.912.132-.659.644.155.909-.815-.43-.816.43.156-.909-.66-.644.91-.132.41-.827M267.627 177.046l.408.827.912.132-.66.644.156.909-.816-.43-.816.43.156-.909-.659-.644.912-.132.407-.827"/>
        <path fill="#5C468A" d="M278 204.463h24.598v-28.718H278z"/>
        <path fill="#E16099" d="M281.917 177.046l.408.827.912.132-.66.644.155.909-.815-.43-.816.43.156-.909-.659-.644.91-.132.409-.827M285.815 177.046l.407.827.912.132-.66.644.157.909-.816-.43-.816.43.156-.909-.66-.644.912-.132.408-.827M289.712 177.046l.408.827.912.132-.66.644.156.909-.816-.43-.814.43.154-.909-.66-.644.912-.132.408-.827"/>
        <path fill="#F5EED3" d="M293.608 177.046l.408.827.912.132-.66.644.155.909-.815-.43-.816.43.156-.909-.658-.644.91-.132.408-.827M297.507 177.046l.406.827.912.132-.66.644.156.909-.814-.43-.816.43.156-.909-.66-.644.912-.132.408-.827"/>
        <path fill="#E16099" d="M220.86 177.046l.409.827.911.132-.66.644.156.909-.815-.43-.816.43.157-.909-.66-.644.91-.132.409-.827"/>
        <path fill="#F5EED3" d="M224.76 177.046l.406.827.912.132-.66.644.157.909-.816-.43-.816.43.156-.909-.66-.644.912-.132.408-.827M228.656 177.046l.41.827.91.132-.66.644.156.909-.816-.43-.814.43.154-.909-.66-.644.914-.132.406-.827M232.552 177.046l.408.827.912.132-.66.644.155.909-.815-.43-.816.43.158-.909-.66-.644.91-.132.408-.827M236.45 177.046l.407.827.912.132-.66.644.158.909-.816-.43-.816.43.156-.909-.66-.644.912-.132.408-.827"/>
        <path fill="#5C468A" d="M278 287.011h24.598v-70.954H278z"/>
        <path fill="#392C77" d="M278 224.342h24.598v-8.285H278zM215.645 220.199h55.427v-4.142h-55.427z"/>
        <path fill="#5C468A" d="M215.645 232.54h55.427v-7.38h-55.427zM215.645 286.387h55.427v-48.224h-55.427z"/>
        <path fill="#A58BB5" d="M196.63 183.583c-9.042-3.061-18.641-5.324-27.751-8.123a6.552 6.552 0 0 1 3.516-1.015h24.235v9.138"/>
        <path fill="#987AA9" d="M197.11 233.036h-24.236a6.597 6.597 0 0 1-6.594-6.598v-45.11a6.597 6.597 0 0 1 3.078-5.583c9.11 2.799 18.709 5.061 27.752 8.122v49.17"/>
        <path fill="#82C9C0" d="M197.458 232.751h4.274v-58.306h-4.274z"/>
        <path fill="#8ACCC7" d="M201.355 232.751h5.793v-58.306h-5.793z"/>
        <path fill="#987AA9" d="M216.704 232.751h-8.854v-58.306h23.404c1.107 0 2.15.272 3.065.754h-17.615v28.718h21.143v12.066h-21.143v4.142h21.143v5.355h-21.143v7.271"/>
        <path fill="#A58BB5" d="M236.788 204.463h-21.143v-28.718h17.615a6.633 6.633 0 0 1 2.572 2.419l-.32.65-.912.133.66.643-.156.91.815-.43.776.409c.061.361.093.732.093 1.11v22.874m-4.857-24.393l.815.43-.155-.91.66-.643-.912-.133-.408-.827-.408.827-.91.133.66.643-.158.91.816-.43m-3.988 0l.816.43-.156-.91.66-.643-.91-.133-.41-.827-.406.827-.914.133.66.643-.154.91.814-.43m-3.987 0l.816.43-.157-.91.66-.643-.912-.133-.407-.827-.408.827-.912.133.66.643-.156.91.816-.43m-3.988 0l.816.43-.156-.91.66-.643-.912-.133-.408-.827-.408.827-.91.133.66.643-.158.91.816-.43"/>
        <path fill="#ECACC4" d="M221.676 179.558l-.815-.43-.816.43.157-.909-.66-.644.91-.132.409-.827.408.827.911.132-.66.644.156.909"/>
        <path fill="#FDF8EB" d="M225.575 179.558l-.816-.43-.816.43.156-.909-.66-.644.912-.132.408-.827.407.827.912.132-.66.644.157.909M229.472 179.558l-.816-.43-.814.43.154-.909-.66-.644.914-.132.406-.827.41.827.91.132-.66.644.156.909M233.367 179.558l-.815-.43-.816.43.158-.909-.66-.644.91-.132.408-.827.408.827.912.132-.66.644.155.909M235.635 179.381l.156-.909-.66-.644.912-.132.32-.65a6.58 6.58 0 0 1 .863 2.314l-.775-.408-.816.43"/>
        <path fill="#9679A9" d="M215.645 220.199h21.143v-4.142h-21.143z"/>
        <path fill="#A58BB5" d="M230.196 232.431h-14.551v-7.271h21.143v.673a6.596 6.596 0 0 1-6.592 6.598"/>
        <path fill="#FFFFFE" d="M174.075 186.978h49.286v-4.73h-49.286zM174.075 196.082h31.058v-4.732h-31.058zM178.3 201.753l1.306 2.647 2.92.427-2.113 2.061.499 2.91-2.611-1.374-2.611 1.374.498-2.91-2.113-2.061 2.92-.427 1.306-2.647M189.992 201.753l1.306 2.647 2.919.427-2.113 2.061.5 2.91-2.612-1.374-2.612 1.374.499-2.91-2.113-2.061 2.92-.427 1.306-2.647M201.684 201.753l1.304 2.647 2.92.427-2.113 2.061.499 2.91-2.61-1.374-2.613 1.374.5-2.91-2.113-2.061 2.919-.427 1.307-2.647M213.374 201.753l1.307 2.647 2.919.427-2.112 2.061.499 2.91-2.613-1.374-2.611 1.374.499-2.91-2.112-2.061 2.919-.427 1.305-2.647M225.066 201.753l1.307 2.647 2.919.427-2.113 2.061.5 2.91-2.613-1.374-2.611 1.374.498-2.91-2.112-2.061 2.92-.427 1.305-2.647M226.23 225.738h-48.948a3.208 3.208 0 0 1-3.207-3.209v-4.562a3.208 3.208 0 0 1 3.207-3.21h48.949a3.208 3.208 0 0 1 3.207 3.21v4.562a3.208 3.208 0 0 1-3.207 3.21"/>
        <path fill="#A58BB5" d="M331.748 295.57c-3.644-.398-7.274-.93-10.879-1.608v-40.194h6.781a4.974 4.974 0 0 1 4.97 4.975v34.01a4.95 4.95 0 0 1-.872 2.817"/>
        <path fill="#987AA9" d="M327.65 296.547h-6.78v-3.768c3.604.68 7.234 1.211 10.878 1.609a4.964 4.964 0 0 1-4.098 2.159"/>
        <path fill="#82C9C0" d="M321.256 297.729h-4.284c.006-.137.01-.276.01-.415v-43.546h4.274v43.96"/>
        <path fill="#8ACCC7" d="M317.243 297.729h-8.065a7.155 7.155 0 0 0 2.28-5.246v-38.715h5.796v43.546c0 .139-.004.278-.01.415"/>
        <path fill="#987AA9" d="M308.649 297.729H284.27a4.972 4.972 0 0 1-4.972-4.976v-5.13h22.777v-33.855h8.853v38.715c0 2.07-.877 3.936-2.28 5.246"/>
        <path fill="#A58BB5" d="M302.076 287.622h-22.777v-28.879a4.973 4.973 0 0 1 4.972-4.975h17.805v33.854"/>
        <path fill="#FFFFFE" d="M285.794 262.537h37.163v-3.567h-37.163zM285.794 270.339h23.419v-3.567h-23.419zM288.98 273.274l.984 1.997 2.202.32-1.592 1.554.375 2.194-1.97-1.035-1.966 1.035.375-2.194-1.594-1.554 2.204-.32.982-1.997M298.073 273.274l.985 1.997 2.2.32-1.592 1.554.377 2.194-1.97-1.035-1.97 1.035.378-2.194-1.593-1.554 2.2-.32.985-1.997M305.868 273.274l.984 1.997 2.2.32-1.592 1.554.376 2.194-1.968-1.035-1.97 1.035.377-2.194-1.593-1.554 2.2-.32.986-1.997M314.961 273.274l.985 1.997 2.2.32-1.592 1.554.376 2.194-1.969-1.035-1.968 1.035.375-2.194-1.592-1.554 2.202-.32.983-1.997M324.054 273.274l.985 1.997 2.2.32-1.59 1.554.375 2.194-1.97-1.035-1.969 1.035.377-2.194-1.593-1.554 2.2-.32.985-1.997M325.12 291.958h-36.907a2.42 2.42 0 0 1-2.419-2.42v-3.441a2.42 2.42 0 0 1 2.42-2.42h36.906a2.42 2.42 0 0 1 2.417 2.42v3.44a2.42 2.42 0 0 1-2.417 2.42"/>
        <path fill="#987AA9" d="M197.47 295.13h-2.836a4.973 4.973 0 0 1-4.97-4.977v-34.01a4.973 4.973 0 0 1 4.97-4.976h2.836v43.962"/>
        <path fill="#82C9C0" d="M197.458 295.13h4.274v-43.963h-4.274z"/>
        <path fill="#8ACCC7" d="M208.096 295.13h-6.74v-43.963h5.792v40.398c0 1.296.344 2.514.948 3.564"/>
        <path fill="#987AA9" d="M238.458 295.13h-29.66a7.129 7.129 0 0 1-.948-3.565v-40.398h8.854v35.537h26.725v3.449a4.973 4.973 0 0 1-4.971 4.976"/>
        <path fill="#A58BB5" d="M242.37 286.704h-26.725v-35.537h21.754a4.973 4.973 0 0 1 4.972 4.976v30.561"/>
        <path fill="#FFFFFE" d="M194.86 261.236h37.16v-3.567h-37.16zM194.86 267.737h23.415v-3.566H194.86zM198.045 271.973l.985 1.996 2.2.322-1.592 1.554.377 2.193-1.97-1.036-1.97 1.036.376-2.193-1.591-1.554 2.2-.322.985-1.996M207.139 271.973l.983 1.996 2.202.322-1.593 1.554.376 2.193-1.968-1.036-1.97 1.036.377-2.193-1.593-1.554 2.2-.322.986-1.996M216.232 271.973l.985 1.996 2.2.322-1.592 1.554.375 2.193-1.968-1.036-1.968 1.036.375-2.193-1.592-1.554 2.2-.322.985-1.996M225.325 271.973l.985 1.996 2.2.322-1.593 1.554.378 2.193-1.97-1.036-1.969 1.036.376-2.193-1.592-1.554 2.2-.322.985-1.996M233.12 271.973l.983 1.996 2.202.322-1.592 1.554.375 2.193-1.968-1.036-1.97 1.036.377-2.193-1.592-1.554 2.2-.322.985-1.996M234.183 289.356h-36.906a2.418 2.418 0 0 1-2.417-2.42v-3.44a2.418 2.418 0 0 1 2.417-2.42h36.906a2.419 2.419 0 0 1 2.418 2.42v3.44a2.419 2.419 0 0 1-2.418 2.42"/>
        <path fill="#E2614B" d="M207.1 291.324a1.765 1.765 0 0 1 0-2.492 1.762 1.762 0 1 1 0 2.493zm6.34-6.347l-16.98.113-24.983 25.007 16.87 16.886 24.982-25.007.111-16.999z"/>
        <path fill="#FFFFFE" d="M203.817 294.034l-1.454 4.293 2.709 3.632-4.529-.057-2.613 3.7-1.345-4.328-4.323-1.346 3.697-2.615-.057-4.534 3.628 2.71 4.287-1.455M192.125 305.74l-1.453 4.29 2.707 3.634-4.527-.059-2.614 3.7-1.343-4.328-4.325-1.346 3.697-2.615-.058-4.533 3.628 2.711 4.288-1.455"/>
        <path fill="#392C77" d="M380.175 329.464s-27.816 2.876-62.13 2.876c-34.312 0-62.13-2.876-62.13-2.876s27.818-2.875 62.13-2.875c34.314 0 62.13 2.875 62.13 2.875"/>
        <path fill="#111213" d="M353.442 197.63c-.342-1.213-.101-2.507-.04-3.774.117.116.231.226.352.347 2.004 2.002 2.125 4.4 2.433 6.866-1.206-.953-2.34-1.993-2.745-3.44zm-3.618-17.403l.003-.164c.482 1.08.793 2.235.88 3.467.104 1.491-.253 2.979-.28 4.465-.356-.452-.668-.932-.87-1.472-.75-1.987.136-4.175.267-6.296zm-24.23 14.623c-1.037-1.506-2.05-3.019-2.73-4.788-1.145-2.968-1.146-5.734-.08-8.457.246 6.634 2.56 11.191 2.848 12.448.053.223.03.496-.038.797zm31.936 7.267c-.256-1.083-.447-2.243-.614-3.518-.31-2.348-1.172-3.693-2.839-5.298-.25-.24-.483-.48-.708-.718a4.288 4.288 0 0 0-.169-.823c-.32-.992-1.012-1.783-1.725-2.566a6.61 6.61 0 0 1-.136-1.403c.015-1.47.295-2.89.157-4.37-.17-1.833-.803-3.49-1.756-4.978-.221-1.497-.825-2.936-1.775-4.113-1.626-2.015-4.143-3.17-6.7-3.569-2.47-.382-5.279-.26-7.948.36-2.39.555-4.669 1.508-6.493 2.855-1.872 1.384-3.722 3.456-4.011 6.326-3.35 4.504-.854 11.189 2.364 15.709-.652 1.413-1.77 3.014-2.146 3.784-1.577 3.226-3.156 6.538-4.06 10.029-1.201 4.624-1.416 9.443 4.013 10.868 10.667 2.801 23.48 6.21 33.803.294 3.356-1.923 6.108-5.347 6.178-9.217.07-3.827-2.444-7.255-5.435-9.652z"/>
        <path fill="#F5EED3" d="M342.962 181.37v5.308c0 .96-.175 1.885-.492 2.734-1.11 2.963-3.96 5.074-7.309 5.074-4.306 0-7.797-3.498-7.797-7.808v-5.307l.004-.191a5.621 5.621 0 0 1 5.614-5.435h4.36a5.62 5.62 0 0 1 5.616 5.435l.004.19"/>
        <path fill="#F5EED3" d="M342.962 180.95l-.004.174a7.806 7.806 0 0 1-2.851 5.867 7.765 7.765 0 0 1-4.946 1.766c-4.179 0-7.589-3.29-7.784-7.427l-.009-.206-.004-.175c0-4.31 3.491-7.805 7.797-7.805 4.308 0 7.801 3.495 7.801 7.805"/>
        <path fill="#111213" d="M342.958 181.124l.004.19v5.308c0 .96-.175 1.885-.492 2.734l-5.357-5.362c-6.241 2.596-9.537-2.354-9.736-2.664l-.013-.015.004-.191-.004-.175c0-4.31 3.491-7.805 7.797-7.805 4.308 0 7.801 3.495 7.801 7.805l-.004.175"/>
        <path fill="#F5EED3" d="M343.683 188.464a2.315 2.315 0 1 1-4.63 0 2.315 2.315 0 0 1 4.63 0M333.68 208.653s-6.815 9.827-13.184 16.464c-2.576 2.684-5.085 4.85-7.035 5.634-6.78 2.713-27.62-15.427-27.62-15.427s-3.329.365-4.565-.372c-1.232-.744 0-5.927 0-5.927s-4.189-1.605-4.561-2.96c-.37-1.358 6.905.983 7.77 1.253.862.264 2.34 4.426 2.34 4.426 6.535 1.108 23.307 9.499 23.307 9.499s.635-1.468 1.934-4.029a161.86 161.86 0 0 1 4.477-8.19c4.311-7.401 9.193-9.872 9.193-9.872l7.944 9.5"/>
        <path fill="#D24535" d="M333.39 208.653s-6.815 9.827-13.185 16.464l-8.43-7.903a161.86 161.86 0 0 1 4.477-8.19c4.312-7.401 9.194-9.872 9.194-9.872l7.944 9.5"/>
        <path fill="#111213" d="M322.448 244.665s-6.696 30.395-6.696 36.774c0 6.38-.08 42.59-.08 42.59h6.698s10.601-29.645 6.542-39.399c-.61-1.464 5.629-11.022 7.562-17.826 3.084-10.845 2.707-20.196 2.707-20.196l-16.733-1.943"/>
        <path fill="#111213" d="M332.585 242.065s-.54 22.514 3.479 32.646c4.02 10.13 11.813 49.344 11.813 49.344h6.747s-1.422-66.981-3.48-79.364l-18.56-2.626"/>
        <path fill="#E2614B" d="M325.838 224.125l-3.916 19.68a39.764 39.764 0 0 0 17.706 1.57l11.4-1.57c-.056-3.733-.18-9.293-.47-15.25-.17-3.532-.097-7.807-.4-11.322-.753-8.732-2.273-15.882-4.249-18.08h-20.071s-6.596 11.193-4.589 15.212c2.007 4.018 4.589 9.76 4.589 9.76"/>
        <path fill="#111213" d="M321.157 323.989l-.219 2.7-.292 3.677h-15.702c-.89 0-1.304-1.112-.625-1.686.945-.797 2.215-1.533 3.535-2.175 3.16-1.526 6.606-2.516 6.606-2.516h6.697"/>
        <path fill="#F5EED3" d="M321.18 323.989l-.217 2.7c-1.019.553-2.13.93-3.267 1.172-1.811.384-3.678.423-5.533.405-1.66-.012-3.363-.433-4.284-1.761 3.159-1.526 6.605-2.516 6.605-2.516h6.697"/>
        <path fill="#E2614B" d="M346.676 267.589h7.484v-3.748a3.748 3.748 0 0 0-3.741-3.745 3.75 3.75 0 0 0-3.743 3.745v3.748zm8.61 1.126h-9.735v-4.874a4.875 4.875 0 0 1 4.868-4.871 4.875 4.875 0 0 1 4.868 4.87v4.875z"/>
        <path fill="#2BB3A9" d="M361.015 266.772h-21.63l-4.226 24.67h30.082l-4.226-24.67"/>
        <path fill="#F5EED3" d="M359.993 332.572c-4.009 1.97-11.437-4.885-11.437-4.885l-.231-2.094-.175-1.604h6.746l.039 1.811s1.747 1.785 3.404 3.164c1.728 1.43 3.122 2.888 1.654 3.608"/>
        <path fill="#111213" d="M359.818 332.268c-4.01 1.969-11.437-4.885-11.437-4.885l-.231-2.094c.287.274.54.619.82.876 1.626 1.465 3.628 2.545 5.73 3.147.67.193 1.379.338 2.065.215.556-.102 1.096-.4 1.399-.867 1.728 1.43 3.122 2.888 1.654 3.608"/>
        <path fill="#F5EED3" d="M351.86 262.615s-6.748-.357-6.286-3.682c.331-2.393 7.174-1.757 7.174-1.757s7.828-6.81 7.828-16.654c0-4.48-2.188-8.076-4.566-10.655-2.845-3.103-5.972-4.75-5.972-4.75a96.197 96.197 0 0 0-1.288-12.839 97.459 97.459 0 0 0-2.995-12.547l-.18-.579s15.911 6.94 21.765 24.142c1.142 3.336 1.9 7.062 2.091 11.2.985 21.365-17.57 28.12-17.57 28.12"/>
        <path fill="#D24535" d="M367.317 223.294l-11.33 6.573c-2.845-3.103-5.972-4.75-5.972-4.75a96.197 96.197 0 0 0-1.287-12.839 97.459 97.459 0 0 0-2.996-12.547l-.18-.579s15.912 6.94 21.765 24.142"/>
        <path fill="#F5EED3" d="M332.674 190.793L331.557 196l-5.492 3.09s2.122 5.3 7.944 5.3c5.824 0 12.13-5.3 12.13-5.3l-5.562-2.878-1.062-6.162-6.841.744"/>
        <path fill="#E9DDB8" d="M331.538 193.459s3.71 2.228 7.764-.809l.495 2.874-.245.125a7.57 7.57 0 0 1-8.29-.901l.276-1.289"/>
        <path fill="#F5EED3" d="M142.911 96.863l-.86-3.042-.862 3.042a9.94 9.94 0 0 1-4.787 6.009 9.935 9.935 0 0 1 4.787 6.006l.861 3.043.861-3.043a9.94 9.94 0 0 1 4.788-6.006 9.944 9.944 0 0 1-4.788-6.01M398.827 294.522l-.86-3.043-.862 3.043a9.94 9.94 0 0 1-4.787 6.008 9.931 9.931 0 0 1 4.787 6.006l.861 3.043.861-3.043a9.933 9.933 0 0 1 4.789-6.006 9.943 9.943 0 0 1-4.789-6.008"/>
        <path fill="#E2614B" d="M368.525 151.48l.862-3.043.86 3.043a9.937 9.937 0 0 0 4.79 6.007 9.94 9.94 0 0 0-4.79 6.007l-.86 3.043-.862-3.043a9.937 9.937 0 0 0-4.787-6.007 9.935 9.935 0 0 0 4.787-6.007M226.929 76.057l.86-3.042.862 3.042a9.936 9.936 0 0 0 4.788 6.008 9.936 9.936 0 0 0-4.788 6.007l-.861 3.042-.861-3.042a9.94 9.94 0 0 0-4.789-6.007 9.94 9.94 0 0 0 4.789-6.008"/>
        <path fill="#F5EED3" d="M156.62 84.282l-.611-2.164-.613 2.164a7.077 7.077 0 0 1-3.405 4.273 7.08 7.08 0 0 1 3.405 4.273l.613 2.164.612-2.164a7.072 7.072 0 0 1 3.404-4.273 7.068 7.068 0 0 1-3.404-4.273"/>
        <path fill="#E2614B" d="M137.135 304.046l-.612-2.164-.613 2.164a7.068 7.068 0 0 1-3.405 4.273 7.068 7.068 0 0 1 3.405 4.273l.613 2.164.612-2.164a7.073 7.073 0 0 1 3.404-4.273 7.073 7.073 0 0 1-3.404-4.273M70.882 128.495l-.613-2.164-.612 2.164a7.073 7.073 0 0 1-3.405 4.273 7.076 7.076 0 0 1 3.405 4.273l.612 2.164.613-2.164a7.07 7.07 0 0 1 3.406-4.273 7.065 7.065 0 0 1-3.406-4.273M150.126 317.05l-.614-2.164-.612 2.164a7.068 7.068 0 0 1-3.405 4.273 7.068 7.068 0 0 1 3.405 4.273l.612 2.164.614-2.164a7.063 7.063 0 0 1 3.405-4.273 7.063 7.063 0 0 1-3.405-4.273M356.678 131.095l-.613-2.163-.613 2.163a7.063 7.063 0 0 1-3.405 4.273 7.055 7.055 0 0 1 3.405 4.273l.613 2.164.613-2.164a7.062 7.062 0 0 1 3.406-4.273 7.07 7.07 0 0 1-3.406-4.273M79.976 108.989l-.613-2.164-.612 2.164a7.076 7.076 0 0 1-3.405 4.273 7.069 7.069 0 0 1 3.405 4.273l.612 2.164.613-2.164a7.064 7.064 0 0 1 3.405-4.273 7.072 7.072 0 0 1-3.405-4.273"/>
        <path fill="#F5EED3" d="M389.153 283.24l-.613-2.164-.612 2.164a7.068 7.068 0 0 1-3.405 4.273 7.068 7.068 0 0 1 3.405 4.273l.612 2.164.613-2.164a7.068 7.068 0 0 1 3.405-4.273 7.068 7.068 0 0 1-3.405-4.273"/>
        <path fill="#E16099" d="M246.822 212.452h24.597v-6.798h-24.597zM143.75 136.734h24.83a6.051 6.051 0 0 1 6.048 6.054v24.856a6.05 6.05 0 0 1-4.548 5.86v10.124l-9.918-9.93h-16.413a6.051 6.051 0 0 1-6.048-6.054v-24.856a6.052 6.052 0 0 1 6.048-6.054"/>
        <path fill="#FFFFFE" d="M169.345 152.668c-.038-.797-.725-1.411-1.521-1.411h-2.354l-4.017-.001h-1.03s.374-3.149.28-3.742c-.093-.591-1.432-3.866-1.432-3.866s-.375-.561-1.121-.374c-.747.187-.842.687-.842.687l.156 3.46c-.342 1.653-3.24 5.3-3.24 5.3l-.934.718v7.982l.347.486c.367.516.962.823 1.597.823h10.497a1.481 1.481 0 0 0 .556-2.855h.106c.797 0 1.479-.613 1.518-1.407a1.481 1.481 0 0 0-.885-1.435h.029a1.482 1.482 0 0 0 .656-2.811h.154c.842 0 1.519-.702 1.48-1.554M149.487 162.258a.827.827 0 1 1 .001-1.654.827.827 0 0 1 0 1.654zm.86-11.219l-4.845-.001c-.721 0-1.306.585-1.306 1.306v9.724c0 .722.584 1.307 1.305 1.307h4.846c.72 0 1.305-.584 1.305-1.306v-9.724c0-.722-.584-1.306-1.305-1.306z"/>
        <path fill="#E2614B" d="M325.765 65.213h-24.83a6.05 6.05 0 0 0-6.047 6.054v24.856a6.05 6.05 0 0 0 4.548 5.86v10.124l9.92-9.93h16.41a6.053 6.053 0 0 0 6.05-6.054V71.267a6.052 6.052 0 0 0-6.05-6.054"/>
        <path fill="#FFFFFE" d="M325.233 81.146c-.038-.797-.724-1.411-1.521-1.411h-7.401s.374-3.15.28-3.741c-.093-.593-1.433-3.866-1.433-3.866s-.374-.562-1.12-.375c-.748.187-.841.685-.841.685l.156 3.462c-.343 1.653-3.24 5.3-3.24 5.3l-.935.717v7.982l.346.486c.37.517.964.823 1.598.823l4.083.001h6.414a1.483 1.483 0 0 0 .557-2.857h.105c.797 0 1.479-.61 1.519-1.407a1.481 1.481 0 0 0-.886-1.433h.03a1.483 1.483 0 0 0 .653-2.811h.157c.84 0 1.519-.704 1.479-1.555M306.676 90.737a.825.825 0 1 1 0-1.65.825.825 0 0 1 0 1.65zm.86-11.219h-4.847c-.72 0-1.305.584-1.305 1.306v9.724c0 .722.585 1.306 1.305 1.307h4.847c.72 0 1.305-.585 1.305-1.307v-9.724c0-.72-.584-1.306-1.304-1.306zM280.424 307.9h7.485v-3.745a3.75 3.75 0 0 0-3.742-3.748 3.75 3.75 0 0 0-3.743 3.748v3.745zm8.61 1.126H279.3v-4.87a4.876 4.876 0 0 1 4.868-4.875 4.875 4.875 0 0 1 4.867 4.874v4.871z"/>
        <path fill="#E16099" d="M294.762 305.783h-21.63l-4.225 24.671h30.08l-4.225-24.67"/>
        <path fill="#3079ED" fill-rule="nonzero" d="M17.81 36C27.648 36 36 30.826 36 20.885 36 10.944 27.647 0 17.81 0 7.975 0 0 8.059 0 18s7.974 18 17.81 18z"/>
    </g>
</svg>
