<svg xmlns="http://www.w3.org/2000/svg" xmlns:xlink="http://www.w3.org/1999/xlink" width="36" height="36" viewBox="0 0 36 36">
    <defs>
        <path id="a" d="M.004 0H36v36H.004z"/>
    </defs>
    <g fill="none" fill-rule="evenodd">
        <g>
            <mask id="b" fill="#fff">
                <use xlink:href="#a"/>
            </mask>
            <path fill="#FFCF11" d="M36 18c0 9.941-8.059 18-18 18S0 27.941 0 18 8.059 0 18 0s18 8.059 18 18z" mask="url(#b)"/>
        </g>
        <path fill="#EBF0F3" d="M27.386 2H8.614a.629.629 0 0 0-.58.386L6.05 7.11a.635.635 0 0 0 .143.701l11.37 11.013a.626.626 0 0 0 .873 0L29.807 7.81a.635.635 0 0 0 .143-.701l-1.985-4.723A.628.628 0 0 0 27.386 2z"/>
        <path fill="#FFF" d="M22.382 7l-4.287 11.992a.616.616 0 0 1-.19 0L13.618 7H6a.668.668 0 0 0 .173.315l11.39 11.5c.244.247.63.247.874 0l11.39-11.5A.665.665 0 0 0 30 7h-7.618z"/>
        <path fill="#EBF0F3" d="M18.46 16C11.154 16 4.984 20.946 3 27.729a18.58 18.58 0 0 0 3.263 4.046c.334-6.557 5.677-11.786 12.197-11.786 6.594 0 11.983 5.35 12.204 12.011A18.573 18.573 0 0 0 34 28.013C32.107 21.085 25.867 16 18.46 16z"/>
        <path fill="#E0C517" d="M25 18H11l.619-3.57c.043-.25.233-.43.453-.43h11.856c.22 0 .41.18.453.43L25 18z"/>
        <path fill="#927917" d="M15 14h-3.055c-.194 0-.361.18-.4.43L11 18h3.055l.545-3.57c.038-.25.205-.43.4-.43z"/>
        <path fill="#FFF" d="M22.14 2h-7.28L14 7h9z"/>
    </g>
</svg>
