<svg xmlns="http://www.w3.org/2000/svg" width="46" height="46" viewBox="0 0 46 46">
    <g fill="none" fill-rule="evenodd">
        <path fill="#ECF8FE" fill-rule="nonzero" d="M5.38 15.474c7.04 1.782 4.91-7.642 5.832-7.642.922 0 16.077 12.368 19.865 1.672 2.526-7.131 7.004-5.794 13.435 4.011 3.481 4.68 3.038 7.02-1.331 7.02-6.553 0-8.315 5.682-8.315 12.145 0 6.462-9.011 8.802-12.595 3.565-3.584-5.237 6.609-1.179-9.85-3.565-16.46-2.387-14.08-18.99-7.04-17.206z"/>
        <path fill="#FFF" d="M28 35h12v8H28zM23.168 7l9.306 6.845v2.129l1.017 4.319-3.777 3.585-2.675 2.34c-3.497 1.56-5.845 1.56-7.043 0a63.87 63.87 0 0 0-3.648-4.352L14 18.856v-2.882l2.348-3.94 3.648-3.315L23.168 7z"/>
        <g fill="#BDDBFF">
            <path d="M3 32v3c0 .552.437 1 .976 1h6.834v-3l-2.89-6.92C5.085 26.55 3.001 29.058 3 32zM36.19 36h6.834c.539 0 .976-.448.976-1v-3c-.001-2.942-2.085-5.45-4.92-5.92L36.19 33v3zM31.31 32v3c0 .552-.438 1-.977 1h5.857v-3l-2.889-6.92a5.752 5.752 0 0 0-3.456 1.967A6.05 6.05 0 0 1 31.31 32z"/>
            <path d="M10.81 36h5.857a.988.988 0 0 1-.977-1v-3a6.05 6.05 0 0 1 1.465-3.953 5.752 5.752 0 0 0-3.456-1.967L10.809 33v3zM29.845 28.047a5.81 5.81 0 0 0-3.456-1.967L23.5 33v3h6.833c.54 0 .977-.448.977-1v-3a6.05 6.05 0 0 0-1.465-3.953z"/>
            <path d="M15.69 32v3c0 .552.438 1 .977 1H23.5v-3l-2.89-6.92a5.81 5.81 0 0 0-3.455 1.967A6.05 6.05 0 0 0 15.69 32zM21.548 16l1.952 1h4.881v-1c0-2.209-1.748-4-3.905-4h-1.952c-2.157 0-3.905 1.791-3.905 4v1h1.952l.977-1zM34.238 16l1.952 1h4.881v-1c0-2.209-1.748-4-3.904-4h-1.953c-2.156 0-3.904 1.791-3.904 4v1h1.952l.976-1zM9.833 12c-2.156 0-3.904 1.791-3.904 4v1H7.88l.976-1 1.953 1h4.88v-1c0-2.209-1.748-4-3.904-4H9.833z"/>
        </g>
        <path fill="#3D9AE2" d="M26 31h1v1h-1z"/>
        <path fill="#5E77FF" fill-rule="nonzero" d="M38.387 25.093A6.385 6.385 0 0 0 37.318 25H33.5a6.473 6.473 0 0 0-4.278 1.645A6.596 6.596 0 0 0 24.909 25h-3.818a6.534 6.534 0 0 0-4.314 1.645 6.524 6.524 0 0 0-3.209-1.552A6.323 6.323 0 0 0 12.5 25H8.682c-.358 0-.715.031-1.068.093C4.37 25.628 1.987 28.562 2 32v3c0 1.104.855 2 1.91 2h38.18c1.055 0 1.91-.896 1.91-2v-3c.013-3.438-2.371-6.372-5.613-6.907zM36.821 27l-1.412 3.457L33.997 27h2.824zm-12.41 0L23 30.457 21.588 27h2.824zm-12.408 0l-1.412 3.457L9.179 27h2.824zm-8.094 5c-.006-2.166 1.329-4.086 3.3-4.744l2.427 5.95V35H3.91v-3zm7.636 3v-1.8l2.43-5.949a4.65 4.65 0 0 1 1.54.882A7.227 7.227 0 0 0 14.41 32v3h-2.864zm4.773 0v-3c-.006-2.166 1.329-4.086 3.3-4.744l2.427 5.95V35h-5.727zm7.637 0v-1.8l2.428-5.949c1.971.658 3.307 2.581 3.299 4.749v3h-5.727zm6.53-6.862c.456-.393.98-.692 1.541-.882l2.429 5.944V35H31.59v-3a7.226 7.226 0 0 0-1.107-3.862zM42.09 35h-5.727v-1.8l2.428-5.948c1.971.658 3.307 2.58 3.299 4.748v3zM29 20.357V18.5c.552 0 1-.416 1-.929v-.928c-.003-2.563-2.24-4.64-5-4.643h-2c-2.76.003-4.997 2.08-5 4.643v.928c0 .513.448.929 1 .929v1.857C19 22.921 21.239 25 24 25s5-2.079 5-4.643zm-6-6.5h2c1.657 0 3 1.247 3 2.786h-3.764l-1.79-.831a1.059 1.059 0 0 0-1.153.174l-.707.657H20c0-1.539 1.343-2.786 3-2.786zm1 9.286c-1.657 0-3-1.247-3-2.786V18.5c.265 0 .52-.098.707-.272l.49-.455 1.356.63c.139.064.292.097.447.097h3v1.857c0 1.539-1.343 2.786-3 2.786z"/>
        <path fill="#5E77FF" fill-rule="nonzero" d="M40 20.357V18.5c.552 0 1-.416 1-.929v-.928c-.003-2.563-2.24-4.64-5-4.643h-2c-2.76.003-4.997 2.08-5 4.643v.928c0 .513.448.929 1 .929v1.857C30 22.921 32.239 25 35 25s5-2.079 5-4.643zm-6-6.5h2c1.657 0 3 1.247 3 2.786h-3.764l-1.79-.831a1.059 1.059 0 0 0-1.153.174l-.707.657H31c0-1.539 1.343-2.786 3-2.786zm1 9.286c-1.657 0-3-1.247-3-2.786V18.5c.265 0 .52-.098.707-.272l.49-.455 1.356.63c.139.064.292.097.447.097h3v1.857c0 1.539-1.343 2.786-3 2.786zM16 20.357V18.5c.552 0 1-.416 1-.929v-.928c-.003-2.563-2.24-4.64-5-4.643h-2c-2.76.003-4.997 2.08-5 4.643v.928c0 .513.448.929 1 .929v1.857C6 22.921 8.239 25 11 25s5-2.079 5-4.643zm-6-6.5h2c1.657 0 3 1.247 3 2.786h-3.764l-1.79-.831a1.059 1.059 0 0 0-1.153.174l-.707.657H7c0-1.539 1.343-2.786 3-2.786zm1 9.286c-1.657 0-3-1.247-3-2.786V18.5c.265 0 .52-.098.707-.272l.49-.455 1.356.63c.139.064.292.097.447.097h3v1.857c0 1.539-1.343 2.786-3 2.786z"/>
        <path fill="#5E77FF" d="M33.626 11L35 9.531C32.161 6.004 28.175 4 24 4s-8.161 2.004-11 5.531L14.373 11C16.857 7.913 20.346 6.159 24 6.159c3.654 0 7.142 1.754 9.626 4.841z"/>
    </g>
</svg>
