<svg xmlns="http://www.w3.org/2000/svg" xmlns:xlink="http://www.w3.org/1999/xlink" width="36" height="36" viewBox="0 0 36 36">
    <defs>
        <path id="a" d="M.004 0H36v36H.004z"/>
    </defs>
    <g fill="none" fill-rule="evenodd">
        <mask id="b" fill="#fff">
            <use xlink:href="#a"/>
        </mask>
        <path fill="#63E6B6" d="M36 18c0 9.941-8.059 18-18 18S0 27.941 0 18 8.059 0 18 0s18 8.059 18 18z" mask="url(#b)"/>
        <g fill-rule="nonzero" mask="url(#b)">
            <path fill="#5C546A" d="M7 17.847v-3.558c0-.456.192-.893.534-1.215l1.033-.973a.381.381 0 0 1 .517 0 .33.33 0 0 1 0 .486l-1.033.973c-.205.194-.32.456-.32.73v2.525c0 .19.163.344.364.344h1.826c.138 0 .264.073.326.19a.328.328 0 0 1-.034.36l-1.096 1.376a.373.373 0 0 1-.292.137H8.46c-.806 0-1.46-.616-1.46-1.375z"/>
            <path fill="#AEEFFF" d="M23.794 16.333c-2.416 0-4.381 1.863-4.381 4.153 0 2.29 1.965 4.153 4.38 4.153 2.416 0 4.382-1.863 4.382-4.153 0-2.29-1.966-4.153-4.381-4.153z"/>
            <path fill="#FFF" d="M24.889 18.139c-.805 0-1.46.648-1.46 1.444 0 .797.655 1.445 1.46 1.445.805 0 1.46-.648 1.46-1.445 0-.796-.655-1.444-1.46-1.444z"/>
            <path fill="#AEEFFF" d="M13.206 16.333c-2.415 0-4.38 1.863-4.38 4.153 0 2.29 1.965 4.153 4.38 4.153 2.416 0 4.381-1.863 4.381-4.153 0-2.29-1.965-4.153-4.38-4.153z"/>
            <path fill="#5C546A" d="M19.778 19.583c-.202 0-.365-.147-.365-.328 0-.452-.41-.82-.913-.82-.503 0-.913.368-.913.82 0 .181-.163.328-.365.328-.202 0-.365-.147-.365-.328 0-.815.737-1.477 1.643-1.477s1.643.662 1.643 1.477c0 .181-.163.328-.365.328zM28.54 19.222h-.365a.373.373 0 0 1-.292-.137l-1.096-1.376a.328.328 0 0 1-.034-.36.368.368 0 0 1 .326-.19h1.826c.201 0 .365-.154.365-.344V14.29c0-.274-.116-.536-.321-.73l-1.033-.973a.33.33 0 0 1 0-.486.381.381 0 0 1 .517 0l1.033.973c.342.322.534.76.534 1.215v3.558c0 .76-.654 1.375-1.46 1.375z"/>
            <path fill="#868491" d="M13.206 25c-2.617 0-4.746-2.025-4.746-4.514 0-2.489 2.13-4.514 4.746-4.514 2.617 0 4.746 2.025 4.746 4.514 0 2.49-2.129 4.514-4.746 4.514zm0-8.333c-2.214 0-4.016 1.713-4.016 3.82 0 2.105 1.802 3.819 4.016 3.819 2.215 0 4.016-1.714 4.016-3.82s-1.801-3.82-4.016-3.82zM24.159 25c-2.617 0-4.746-2.025-4.746-4.514 0-2.489 2.129-4.514 4.746-4.514 2.617 0 4.746 2.025 4.746 4.514 0 2.49-2.13 4.514-4.746 4.514zm0-8.333c-2.215 0-4.016 1.713-4.016 3.82 0 2.105 1.801 3.819 4.016 3.819 2.214 0 4.016-1.714 4.016-3.82s-1.802-3.82-4.016-3.82z"/>
            <path fill="#FFF" d="M13.937 18.139c-.806 0-1.46.648-1.46 1.444 0 .797.654 1.445 1.46 1.445.805 0 1.46-.648 1.46-1.445 0-.796-.655-1.444-1.46-1.444z"/>
        </g>
    </g>
</svg>
