<svg xmlns="http://www.w3.org/2000/svg" xmlns:xlink="http://www.w3.org/1999/xlink" width="37" height="37" viewBox="0 0 37 37">
    <defs>
        <path id="a" d="M.004 0H37v37H.004z"/>
    </defs>
    <g fill="none" fill-rule="evenodd">
        <g>
            <mask id="b" fill="#fff">
                <use xlink:href="#a"/>
            </mask>
            <path fill="#D3DFED" d="M18.5 0C28.717 0 37 8.283 37 18.5S28.717 37 18.5 37 0 28.717 0 18.5 8.283 0 18.5 0" mask="url(#b)"/>
        </g>
        <path fill="#FFFFFE" d="M23.182 17.247L22 17v3.94L26.525 23c.142-.531.564-.97.944-1.37.17-.178.348-.341.531-.497l-4.818-3.886"/>
        <path fill="#D8E2DE" d="M22 19.174v1.923L26.525 23c.142-.49.564-.896.944-1.264.17-.165.348-.316.531-.46L24.944 19 22 19.174"/>
        <path fill="#000" d="M18.381 0c-.792 0-1.573.051-2.339.15v20.874c0 1.966-1.511 3.634-3.457 3.717a4.439 4.439 0 0 1-.189.004c-2.03 0-3.738-1.389-4.243-3.277A7.15 7.15 0 0 0 8 22.937C8 26.837 11.134 30 15 30s7-3.162 7-7.063V.362A18.196 18.196 0 0 0 18.381 0"/>
        <path fill="#404040" d="M22 19h-5.958v2.837c0 2.006-1.511 3.71-3.457 3.794a4.348 4.348 0 0 1-.189.004c-2.03 0-3.738-1.418-4.243-3.345-.1.484-.153.985-.153 1.5C8 27.771 11.134 31 15 31s7-3.228 7-7.21V19"/>
        <path fill="#919191" d="M18.538 0c-1.248 0-2.466.127-3.644.367v10.857c0 1.702-1.296 3.148-2.964 3.22a3.812 3.812 0 0 1-.162.003c-1.74 0-3.204-1.203-3.637-2.839A6.26 6.26 0 0 0 8 12.881C8 16.26 10.686 19 14 19s6-2.74 6-6.12V.06C19.518.02 19.03 0 18.538 0"/>
        <path fill="#B9B7B2" d="M13.17.693v2.89c0 1.186-.972 2.193-2.223 2.243-.04.002-.08.002-.12.002-1.306 0-2.404-.838-2.729-1.977A4.06 4.06 0 0 0 8 4.737C8 7.09 10.015 9 12.5 9S17 7.091 17 4.737V0c-1.319.112-2.6.347-3.83.693"/>
        <path fill="#C6C2CA" d="M25.228 14.093c-.023-.022-.016-.062-.023-.093L7 23l15.59-3.532L27 15.606c-.676-.456-.676-.456-1.772-1.513"/>
        <path fill="#B0AEB5" d="M16.89 19L7 24l15.417-3.572L24 19.01 16.89 19"/>
        <path fill="#4A357E" d="M30.437 13.5a1.94 1.94 0 0 0-1.937-1.937 1.94 1.94 0 0 0-1.937 1.937 1.94 1.94 0 0 0 1.937 1.937 1.94 1.94 0 0 0 1.937-1.937zM25 13.5c0-1.93 1.57-3.5 3.5-3.5s3.5 1.57 3.5 3.5-1.57 3.5-3.5 3.5-3.5-1.57-3.5-3.5z"/>
        <path fill="#3F2C6C" d="M30.437 23.5a1.94 1.94 0 0 0-1.937-1.937 1.94 1.94 0 0 0-1.937 1.937 1.94 1.94 0 0 0 1.937 1.937 1.94 1.94 0 0 0 1.937-1.937zM25 23.5c0-1.93 1.57-3.5 3.5-3.5s3.5 1.57 3.5 3.5-1.57 3.5-3.5 3.5-3.5-1.57-3.5-3.5z"/>
        <path fill="#FFFFFE" d="M22 17a1 1 0 1 1 0 2 1 1 0 0 1 0-2"/>
        <path fill="#B9DFDD" d="M23 19a1 1 0 1 1-2 0h2"/>
    </g>
</svg>
