<svg xmlns="http://www.w3.org/2000/svg" xmlns:xlink="http://www.w3.org/1999/xlink" width="45" height="16" viewBox="0 0 45 16">
    <defs>
        <path id="a" d="M.005.03H45V16H.005z"/>
    </defs>
    <g fill="none" fill-rule="evenodd">
        <g>
            <mask id="b" fill="#fff">
                <use xlink:href="#a"/>
            </mask>
            <path  d="M45 1.862v1.807c0 .373-.3.678-.674.678 0 0-.206 1.187-.507 2.644-.301 1.455-.694 3.175-1.062 4.248 0 0-1.295 5.963-10.073 4.542-4.192-.155-8.807-5.545-8.664-10.203.011-.478-.256-1.491-1.521-1.462-1.269-.03-1.533.99-1.518 1.469.162 4.574-4.434 10.04-8.664 10.195-8.776 1.419-10.075-4.542-10.075-4.542C1.515 9.094.679 4.346.679 4.346A.674.674 0 0 1 0 3.67V1.863a.68.68 0 0 1 .533-.664C5.103.213 9.606.065 9.606.065c2.957-.2 6.31.487 8.386 1.022 2.984.768 6.037.768 9.022 0C29.09.552 32.44-.133 35.4.067c0 0 4.498.146 9.068 1.133.31.065.532.345.532.662" mask="url(#b)"/>
        </g>
        <path fill="#7F7F7F" d="M26.007 5.461s-.157-1.72 3.261-2.71c0 0 4.472-1.458 8.522-.311 0 0 4.21.938 4.21 3.386 0 0-.194 7.082-3.359 8.45-2.653 1.15-7.27 1.279-10.318-2.25 0-.001-2.473-2.71-2.316-6.565M18.993 5.461s.157-1.72-3.261-2.71c0 0-4.472-1.458-8.522-.311 0 0-4.21.938-4.21 3.386 0 0 .194 7.082 3.359 8.45 2.653 1.15 7.27 1.279 10.318-2.25 0-.001 2.473-2.71 2.316-6.565"/>
    </g>
</svg>
