<svg xmlns="http://www.w3.org/2000/svg" width="39" height="39" viewBox="0 0 39 39">
    <g fill="none" fill-rule="evenodd">
        <path fill="#FAE07B" d="M39 19.5a19.437 19.437 0 0 1-3.017 10.422 19.59 19.59 0 0 1-7.814 7.05A19.418 19.418 0 0 1 19.5 39c-5.6 0-10.648-2.36-14.205-6.14A19.496 19.496 0 0 1 .83 25.146 19.476 19.476 0 0 1 0 19.5C0 8.73 8.73 0 19.5 0a19.665 19.665 0 0 1 4.813.599c3.39.86 6.424 2.609 8.844 4.982A19.43 19.43 0 0 1 39 19.5z"/>
        <path fill="#DD3400" d="M27.238 28.725h1.524V24.39h-1.524z"/>
        <path fill="#FF7816" d="M12.33 9.152l-3.26 3.226 2.807 2.777 3.258-3.225z"/>
        <path fill="#99503D" d="M17.478 29.24l-4.301 2.479-2.581-2.57L8 26.594l2.504-4.258 3.487 3.452z"/>
        <path fill="#663325" d="M14.05 25.71l3.474 3.51-4.286 2.52-2.571-2.613z"/>
        <path fill="#99503D" d="M32 13.161l-2.512 4.26-7.012-6.921L26.791 8z"/>
        <path fill="#663325" d="M32 13.19l-2.548 4.23-3.547-3.429 3.454-3.353z"/>
        <path fill="#FDBF00" d="M26.975 12.783a10.004 10.004 0 0 0-7.064-2.899c-5.528 0-10.006 4.435-10.006 9.895a9.797 9.797 0 0 0 2.93 6.995 10.039 10.039 0 0 0 7.078 2.893c5.54 0 9.992-4.448 9.992-9.888a9.823 9.823 0 0 0-2.93-6.996z"/>
        <path fill="#FDBF00" d="M30.095 19.925a9.866 9.866 0 0 0-2.942-7.026l-14.2 14.051a10.082 10.082 0 0 0 7.107 2.905c5.564 0 10.035-4.467 10.035-9.93z"/>
        <path fill="#EDE9E8" d="M24.828 15.104a6.962 6.962 0 0 0-4.917-2.017c-3.84 0-6.959 3.083-6.959 6.877 0 1.897.78 3.616 2.04 4.861a6.979 6.979 0 0 0 4.919 2.016c3.84 0 6.946-3.073 6.946-6.877a6.817 6.817 0 0 0-2.03-4.86z"/>
        <path fill="#EDE9E8" d="M19.943 26.652c3.822 0 6.914-3.058 6.914-6.844 0-1.893-.772-3.6-2.02-4.837l-9.79 9.675a6.946 6.946 0 0 0 4.896 2.006z"/>
        <path fill="#FF4B00" d="M30.286 34h-4.572v-4.14L28 27.594l2.286 2.266z"/>
        <path fill="#3E5959" d="M23.238 17.74l-1.1-1.073-3.28 3.203.549.536 2.732 2.666 1.1-1.057-2.184-2.145z"/>
        <path fill="#384949" d="M23.238 22.02l-2.17-2.135 2.17-2.12-.546-.533-3.263 3.187 2.716 2.653z"/>
    </g>
</svg>
