<?xml version="1.0" encoding="UTF-8"?>
<svg xmlns="http://www.w3.org/2000/svg" xmlns:xlink="http://www.w3.org/1999/xlink" viewBox="0 0 32 32" version="1.1" width="32px" height="32px">
<g id="surface1">
<path style=" " d="M 5 6 C 4.449219 6 4 6.449219 4 7 C 4 7.550781 4.449219 8 5 8 L 7.21875 8 L 9.84375 18.5 C 10.066406 19.390625 10.863281 20 11.78125 20 L 24.25 20 C 25.152344 20 25.917969 19.402344 26.15625 18.53125 L 28.75 9 L 26.65625 9 L 24.25 18 L 11.78125 18 L 9.15625 7.5 C 8.933594 6.609375 8.136719 6 7.21875 6 Z M 23 20 C 21.355469 20 20 21.355469 20 23 C 20 24.644531 21.355469 26 23 26 C 24.644531 26 26 24.644531 26 23 C 26 21.355469 24.644531 20 23 20 Z M 14 20 C 12.355469 20 11 21.355469 11 23 C 11 24.644531 12.355469 26 14 26 C 15.644531 26 17 24.644531 17 23 C 17 21.355469 15.644531 20 14 20 Z M 18 6 L 14 10 L 17 10 L 17 15 L 19 15 L 19 10 L 22 10 Z M 14 22 C 14.5625 22 15 22.4375 15 23 C 15 23.5625 14.5625 24 14 24 C 13.4375 24 13 23.5625 13 23 C 13 22.4375 13.4375 22 14 22 Z M 23 22 C 23.5625 22 24 22.4375 24 23 C 24 23.5625 23.5625 24 23 24 C 22.4375 24 22 23.5625 22 23 C 22 22.4375 22.4375 22 23 22 Z "/>
</g>
</svg>
