<svg xmlns="http://www.w3.org/2000/svg" width="15" height="16" viewBox="0 0 15 16"><g fill-rule="nonzero"><path d="M.5 6C.22386 6 0 5.77614 0 5.5S.22386 5 .5 5h14c.27614 0 .5.22386.5.5s-.22386.5-.5.5H.5z"/><path d="M13.5 2c.82814 0 1.5.67186 1.5 1.5v11c0 .82814-.67186 1.5-1.5 1.5h-12C.67186 16 0 15.32814 0 14.5v-11C0 2.67186.67186 2 1.5 2h12zm0 1h-12c-.27586 0-.5.22414-.5.5v11c0 .27586.22414.5.5.5h12c.27586 0 .5-.22414.5-.5v-11c0-.27586-.22414-.5-.5-.5z"/><path d="M3 .5c0-.27614.22386-.5.5-.5s.5.22386.5.5v2c0 .27614-.22386.5-.5.5S3 2.77614 3 2.5v-2z"/><path d="M11 .5c0-.27614.22386-.5.5-.5s.5.22386.5.5v2c0 .27614-.22386.5-.5.5s-.5-.22386-.5-.5v-2z"/><path d="M7 .5c0-.27614.22386-.5.5-.5s.5.22386.5.5v2c0 .27614-.22386.5-.5.5S7 2.77614 7 2.5v-2z"/></g></svg>