<?xml version="1.0" encoding="UTF-8"?>
<svg xmlns="http://www.w3.org/2000/svg" xmlns:xlink="http://www.w3.org/1999/xlink" viewBox="0 0 26 26" version="1.1" fill="#505978" width="16px" height="16px">
<g id="surface1" fill="#505978">
<path style=" " d="M 18 9 L 15 9 L 15 2 L 18 2 Z M 26 6 L 26 23 C 26 24.65625 24.65625 26 23 26 L 3 26 C 1.34375 26 0 24.65625 0 23 L 0 3 C 0 1.34375 1.34375 0 3 0 L 20 0 C 20.828125 0 21.285156 0.0429688 23.621094 2.378906 C 25.957031 4.714844 26 5.171875 26 6 Z M 5 9 C 5 9.550781 5.449219 10 6 10 L 19 10 C 19.550781 10 20 9.550781 20 9 L 20 2 C 20 1.449219 19.550781 1 19 1 L 6 1 C 5.449219 1 5 1.449219 5 2 Z M 23 14 C 23 13.449219 22.550781 13 22 13 L 4 13 C 3.449219 13 3 13.449219 3 14 L 3 24 C 3 24.550781 3.449219 25 4 25 L 22 25 C 22.550781 25 23 24.550781 23 24 Z " fill="#505978"/>
</g>
</svg>
