<svg width="20" height="20" viewBox="0 0 20 20" fill="none" xmlns="http://www.w3.org/2000/svg">
<path d="M19.9895 10.1878C19.9895 9.3684 19.9214 8.77046 19.7742 8.15039H10.1992V11.8487H15.8195C15.7062 12.7678 15.0943 14.1519 13.7346 15.082L13.7155 15.2058L16.7429 17.4976L16.9527 17.518C18.8789 15.7796 19.9895 13.2217 19.9895 10.1878Z" fill="#4285F4"/>
<path d="M10.1992 19.9323C12.9527 19.9323 15.2642 19.0464 16.9526 17.5183L13.7345 15.0822C12.8734 15.6691 11.7176 16.0788 10.1992 16.0788C7.5024 16.0788 5.2135 14.3404 4.39758 11.9375L4.27798 11.9474L1.13003 14.3281L1.08887 14.44C2.76588 17.6954 6.21059 19.9323 10.1992 19.9323Z" fill="#34A853"/>
<path d="M4.39748 11.9363C4.18219 11.3163 4.05759 10.6518 4.05759 9.96534C4.05759 9.27878 4.18219 8.61443 4.38615 7.99435L4.38045 7.86229L1.19304 5.44336L1.08875 5.49183C0.397576 6.84275 0.000976562 8.35977 0.000976562 9.96534C0.000976562 11.5709 0.397576 13.0879 1.08875 14.4388L4.39748 11.9363Z" fill="#FBBC05"/>
<path d="M10.1993 3.85334C12.1143 3.85334 13.406 4.66166 14.1426 5.33715L17.0207 2.59106C15.2531 0.985492 12.9528 0 10.1993 0C6.21062 0 2.76589 2.23671 1.08887 5.49211L4.38627 7.99462C5.21354 5.59181 7.50245 3.85334 10.1993 3.85334Z" fill="#EB4335"/>
</svg>
