<?xml version="1.0" encoding="UTF-8"?>
<svg width="54px" height="96px" viewBox="0 0 54 96" version="1.1" xmlns="http://www.w3.org/2000/svg" xmlns:xlink="http://www.w3.org/1999/xlink">
    <!-- Generator: Sketch 52.5 (67469) - http://www.bohemiancoding.com/sketch -->
    <title>Fill 14</title>
    <desc>Created with Sketch.</desc>
    <g id="Onboarding" stroke="none" stroke-width="1" fill="none" fill-rule="evenodd">
        <g id="3_Onboarding_-Retailermode" transform="translate(-1251.000000, -190.000000)" fill="#FFFFFF">
            <path d="M1300.34195,258.441086 C1299.24077,264.397633 1298.13959,270.354181 1297.04065,276.308486 C1291.63361,260.89365 1285.76588,245.646951 1279.20821,230.675997 C1272.75168,215.94492 1265.61646,201.399914 1253.54164,190.412696 C1252.12808,189.128126 1250.101,191.12784 1251.43591,192.513292 C1263.45005,204.977878 1270.02794,220.502564 1276.62155,236.244708 C1281.84431,248.713777 1286.67828,261.339774 1291.19988,274.075622 C1288.44692,271.847241 1285.58609,269.760095 1282.54547,267.785041 C1280.29591,266.323367 1277.47778,269.834075 1279.62846,271.555802 C1285.24675,276.050675 1290.86503,280.550032 1296.48332,285.047147 C1297.75529,286.064939 1300.15767,285.950605 1300.52174,283.982277 C1302.01845,275.898231 1303.51067,267.811943 1305.00513,259.723414 C1305.56471,256.690215 1300.90603,255.389952 1300.34195,258.441086" id="Fill-14" transform="translate(1278.025842, 237.839442) scale(-1, 1) rotate(180.000000) translate(-1278.025842, -237.839442) "></path>
        </g>
    </g>
</svg>