<?xml version="1.0" encoding="UTF-8"?>
<svg width="221px" height="210px" viewBox="0 0 221 210" version="1.1" xmlns="http://www.w3.org/2000/svg" xmlns:xlink="http://www.w3.org/1999/xlink">
    <!-- Generator: Sketch 52.5 (67469) - http://www.bohemiancoding.com/sketch -->
    <title>Fill 52</title>
    <desc>Created with Sketch.</desc>
    <g id="Onboarding" stroke="none" stroke-width="1" fill="none" fill-rule="evenodd">
        <g id="2_Onboarding_-Search" transform="translate(-787.000000, -195.000000)" fill="#FFFFFF">
            <path d="M1030.95333,299.960875 C1030.31609,299.480151 1029.48118,299.262803 1028.60985,299.521064 C1027.84516,299.746083 1027.08047,299.968546 1026.31578,300.196123 C1032.23821,296.189238 1037.89534,291.837153 1043.31578,287.139868 C1039.93451,295.85938 1036.43359,304.530308 1032.77922,313.139868 C1032.82604,309.583023 1032.87025,306.026178 1032.91707,302.469333 C1032.93528,301.047618 1032.03014,300.231921 1030.95333,299.960875 M874.309045,303.988261 C893.643062,303.887226 891.152066,326.345574 879.408802,334.480216 C871.851332,339.71333 861.508452,341.462019 852.522435,341.987921 C846.508717,325.718637 854.235155,304.094478 874.309045,303.988261 M1048.24032,275.743688 C1035.47323,288.537987 1021.18686,299.029466 1005.17521,307.406164 C1002.4096,308.856373 1004.31256,313.338371 1007.29705,312.447123 C1012.59907,310.852665 1017.89852,309.263359 1023.19797,307.674054 C1006.64298,331.207114 981.690761,346.566969 954.41842,355.548994 C926.337514,364.801485 882.005475,375.890564 858.75021,351.522925 C857.527062,350.242722 856.463566,348.841454 855.531399,347.360334 C868.401492,346.389235 882.741939,342.772727 890.467085,332.090634 C896.783679,323.355892 897.471217,309.925356 888.224217,302.875226 C864.363816,284.674196 838.68028,319.65438 846.557354,342.226645 C816.542586,341.796476 788.536356,325.823566 771.092976,301.515171 C769.885278,299.833135 767.148001,301.327134 768.260422,303.17145 C785.04459,330.970135 816.501385,347.981117 848.954724,347.615345 C864.641921,377.309863 907.65811,372.516187 935.301258,366.465491 C971.303014,358.593661 1006.10222,341.422976 1027.60645,311.007217 C1027.53435,316.589106 1027.46483,322.170996 1027.39273,327.752885 C1027.35925,330.308139 1031.39178,331.735165 1032.51707,329.14385 C1039.78644,312.431668 1046.56396,295.531448 1052.83936,278.422583 C1053.81788,275.753992 1050.08148,273.896796 1048.24032,275.743688" id="Fill-52" transform="translate(910.500000, 323.000000) rotate(-40.000000) translate(-910.500000, -323.000000) "></path>
        </g>
    </g>
</svg>