<svg height="181" viewBox="0 0 1020 181" width="1020" xmlns="http://www.w3.org/2000/svg"><g transform="translate(3 4)"><path d="m409.94245 32.94004c-3.8019 13.6508-13.4496 26.13414-30.47448 42.41895.62262-.59555-16.99941 15.83475-20.8267 19.81124-5.97283 6.20568-8.9488 10.69858-9.19708 13.90375-.05268.68008 1.49386 2.2315 2.13454 2.17448 15.72151-1.39922 26.35351-5.84788 42.441-15.9089.01665-.0104 5.52919-3.4802 7.10573-4.45333 8.55381-5.27988 14.68995-8.3462 21.72209-10.41417 8.73977-2.57016 17.96922-3.11273 28.56367-1.40053l.40384.06527.37476.16402c2.16128.94594 3.1577 3.09674 2.4569 5.31018-.11426.36092-.2665.71085-.45642 1.05666 15.8603-7.0378 35.555-9.70046 48.57935-6.3699 3.01505.77102 5.02103 2.18077 6.20475 4.21451.26608.45716.47596.91772.66297 1.421.01471.0396.02911.07897.04335.11851.55479-.16969 1.362-.45113 2.41515-.87829 1.30172-.52797 2.74929-1.15561 4.69002-2.02586.69433-.31135 4.24308-1.91737 5.2697-2.37665 2.10186-.9403 3.83658-1.6926 5.50988-2.38108 9.38762-3.86253 16.01792-5.33973 21.26036-3.76074 4.36546 1.31488 5.75086 3.68859 6.62384 8.36776.47602 2.55139.7038 2.94258 2.07604 3.36106 3.8504 1.09143 8.02702 1.04756 13.24735-.01276 2.24962-.45693 4.6793-1.09406 7.726-2.0028 1.82978-.54577 8.70225-2.69736 8.58923-2.66247 8.04269-2.48335 14.06866-4.00079 20.41145-4.89431-3.27328-5.94532 3.22743-14.36525 9.60571-10.84645 4.36106 2.40592 5.89691 6.69393 3.94117 10.66467-.27092.55005-.60027 1.0738-.98131 1.5673 3.96728 1.62931 8.4184 2.0555 13.28702 1.44368 5.90146-.7416 11.69423-2.88125 16.91565-5.64975l.0901-.04597c.24279-.11913 1.2635-.6218 1.3245-.65181.62063-.30532 1.14249-.56093 1.67775-.82131 1.43252-.69685 2.75695-1.32789 4.05397-1.9272.67948-.31397 1.3391-.6134 1.97938-.89807 4.19882-1.8668 7.33313-3.01331 9.3981-3.28907 5.12997-.80122 7.47708 1.07697 8.87586 5.17924.0718.21097.10308.30251.13771.40195.38824 1.11476.46503 1.2044 1.12715 1.33387.2271.0444.45554.08317.68538.11636 5.22525.75452 10.81275-1.22132 18.26608-5.73042.79216-.47924 1.58596-.9726 2.61295-1.62061.1888-.11913.31704-.2002.63096-.39881.31234-.1977.31234-.1977.6215-.39335.50399-.31882.86382-.54556 1.21413-.7646 1.96718-1.23007 3.2884-1.99312 4.51437-2.56686 4.21186-1.97113 7.9359-1.3986 9.0931 3.11271 1.44114 5.61827 4.40258 6.2267 11.2175 3.28464 1.36249-.5882 2.79234-1.29187 4.62455-2.2566.08115-.04272 3.6648-1.9578 4.62989-2.4497 1.75815-.89613 3.08827-1.48262 4.2896-1.8452 4.28356-1.2928 7.6782.73602 7.46697 5.55957-.4126 9.41954-6.0255 17.63412-18.19039 30.16012-1.04492 1.07594-4.89779 4.9944-5.7465 5.86745-2.11593 2.17658-3.68017 3.84837-5.02728 5.39468-1.16849 1.34894-1.3258 1.53063-5.25439 5.70696 32.87371-15.94337 81.21124-29.14138 129.28192-34.91186 61.12898-7.33802 113.69431-2.07195 144.16958 17.11791l-3.43703 5.45831c-28.92825-18.21572-80.17202-23.3494-139.96376-16.1719-54.24254 6.51136-108.82152 22.62115-140.08032 41.17541-.76505.45411-1.37386.75066-1.97998.91611-.71743.19583-1.4249.23689-2.25537-.07293-1.41209-.5268-2.19031-1.8286-2.18725-3.17708.00315-1.38735.51823-2.19494 1.95655-3.9931 1.42073-1.77617 3.5885-4.1601 7.40802-8.2212.12335-.13113.12335-.13113.2467-.2622 5.9144-6.28441 5.9598-6.33305 7.2258-7.79456 1.4445-1.6581 3.081-3.40713 5.27177-5.6607.86615-.89098 4.71753-4.80793 5.74428-5.86516 10.42388-10.73331 15.46637-17.85538 16.27338-24.70831-.6174.25411-1.36806.60812-2.28314 1.07453-.8991.45827-4.42312 2.34148-4.55388 2.41033-1.96633 1.03534-3.5312 1.80546-5.07314 2.47113-4.38351 1.8924-8.0271 2.67323-11.34138 1.99232-4.05143-.83237-6.9246-3.7801-8.41197-8.63892-.11871.0501-.24537.10653-.37973.1694-.92566.43321-2.0695 1.09382-3.82867 2.19381-.3388.21186-.69027.43333-1.18554.74663-.30731.19448-.30731.19448-.6206.39278a542.40796 542.40796 0 0 1 -.63816.40336c-1.0583.66777-1.8836 1.1807-2.71621 1.68441-8.63252 5.2225-15.41825 7.62204-22.52676 6.59558a20.4417 20.4417 0 0 1 -1.0013-.17002c-3.34765-.65457-4.91606-2.4855-5.98083-5.54285-.04185-.12018-.07997-.23171-.1514-.44168-.48096-1.41053-.1459-1.14241-1.84496-.87782-1.30872.17525-4.07974 1.18889-7.70338 2.79996-.6107.2715-1.2421.55814-1.89426.85947-1.25401.57944-2.54117 1.19272-3.93795 1.87219-.52554.25565-1.03931.5073-1.65208.80875-.0542.02666-.97752.48137-1.28512.63248-5.84052 3.09143-12.30413 5.47465-19.08817 6.32716-7.45718.9371-14.34597-.17154-20.28729-3.75146-.89258.27345-1.8308.46809-2.79923.57482-6.9676.76797-13.19476 2.26185-22.07876 5.00498.15112-.04667-6.7694 2.11997-8.64857 2.68048-3.21566.95913-5.81883 1.64176-8.28574 2.14282-6.15049 1.24925-11.32915 1.30364-16.3503-.12028-4.34522-1.32311-5.7264-3.69509-6.59685-8.3606l-.00105-.00563c-.47643-2.55364-.70222-2.94052-2.14322-3.37454-3.32661-1.00196-8.90304.24044-16.94576 3.54962-1.60421.66005-3.2829 1.38805-5.33014 2.30392-1.01044.45204-4.55575 2.0565-5.26457 2.37434-2.00573.8994-3.51692 1.55463-4.90486 2.11758-6.18103 2.50698-9.27793 2.02443-10.68048-2.22623-.30355-.91995-.3169-.9559-.44013-1.16762-.2709-.46542-.817-.8492-2.22802-1.21003-15.95667-4.08041-44.46067 2.26127-58.5826 14.8098-2.1692 1.92754-6.10143 4.08102-8.48655 3.93915-2.65731-.15842-4.81504-1.4986-4.54016-4.42458.14462-1.53943.97922-2.68146 2.46362-4.09682 1.59712-1.52284 2.88404-2.4943 8.28824-6.41088.24101-.17467.45449-.3296.65794-.47753 2.36333-1.71846 4.03258-2.98442 5.25665-4.01574-15.32988-1.69501-26.13959 1.89057-41.71527 11.50472-1.548.95551-7.03555 4.40959-7.07355 4.43335-16.8715 10.55132-28.3595 15.35815-45.28941 16.86493-4.6358.41254-9.49633-4.4633-9.13736-9.09755.40188-5.18795 4.01196-10.6382 10.9807-17.87862 3.96961-4.12436 21.76185-20.71335 21.0155-19.99944 14.88599-14.2389 23.76157-25.30678 27.75458-36.45744-19.98224 22.4582-52.50185 53.22364-87.90118 82.3099l-4.09495-4.98374c38.99177-32.03803 74.55693-66.25932 93.0623-88.38337-.1595-1.02112-.35667-2.17325-.59216-3.47731l-.06058-.33567c-.73569-4.08008-1.0355-6.155-1.11344-8.40285-.11596-3.34439.42593-5.97613 2.01383-7.99755 3.64032-4.63424 8.84848-6.85738 13.21036-5.74868 5.12177 1.30185 6.99146 6.4972 4.29761 11.98096-1.98473 4.04026-5.75033 9.43572-10.9709 15.84938.42364 3.61102.24371 5.73124-.67238 7.88865zm204.50885 40.83569c.35949-.32114.63445-.66786.80884-1.02193.38151-.77458.16689-1.3738-1.2705-2.16678-.16535-.09123-1.1411 1.20636-.8869 1.97563.44034.42717.88992.8314 1.34856 1.21308zm-198.65503-67.41773c.9968-2.02916.76777-2.6656-.09715-2.88544-1.68348-.4279-4.38295.72438-6.54892 3.48173-.8942 1.13832-.88578 3.79734.06607 9.49593 3.01966-3.98464 5.25272-7.39033 6.58-10.09222z"/><path d="m347.90654 34.15216-.13544-6.44887c7.47136-.1569 12.97998.81681 21.98326 3.30946-.23007-.0637 2.23743.62182 2.8889.8003 1.0691.29286 1.9535.52737 2.79656.73937 10.4774 2.63478 17.97116 2.15677 29.07423-3.2332l2.81692 5.80269c-12.5558 6.0952-21.59195 6.6716-33.46424 3.68605-.8926-.22447-1.81846-.46996-2.9277-.77383-.66466-.18208-3.1466-.87162-2.90576-.80494-8.44929-2.33927-13.41986-3.21788-20.12673-3.07703z"/><path d="m256.05707 165.08074c30.71509-1.65115 154.42191-8.68989 144.89824-8.15503 87.15232-4.89452 151.36883-8.10022 215.03578-10.50743 167.91005-6.34858 298.91366-5.39745 400.44421 5.0915l-.66284 6.41614c-101.1608-10.45074-231.90615-11.4-399.53767-5.06195-63.61978 2.40543-127.80145 5.60939-214.9178 10.50188 9.5336-.5354-114.18672 6.5041-144.91367 8.15589-50.72218 2.72666-89.07948 4.47375-121.63129 5.44555l-.1333.00397-.13318-.00704c-6.90035-.36475-13.45093-.38571-31.82938-.23552-13.11047.10715-19.8168.12406-27.7056.02121-23.82087-.31055-41.36952-1.79782-54.33751-5.20485-16.94747-4.45256-25.61333-12.42096-23.19547-24.61736 3.65168-18.42013 40.00931-43.3731 91.3332-65.60798 50.31687-21.7986 102.92528-35.5525 134.0493-33.76894 10.05648.5763 15.02535 7.22435 13.5143 16.1566-1.28503 7.59616-7.07397 15.60406-14.67597 20.04916-3.47405 2.03135-7.71096.81368-8.63744-3.59665-.73963-3.52088.85136-8.75867 4.86044-15.94295l5.63264 3.1432c-1.81992 3.26129-3.03304 5.97395-3.68355 8.11552-.25728.84703-.4135 1.56078-.4879 2.13226 5.53334-3.59935 9.72485-9.6149 10.63185-14.97643.88506-5.23187-1.40073-8.29012-7.5234-8.64099-29.89792-1.71328-81.64307 11.81492-131.11611 33.24796-49.1904 21.31059-84.52012 45.55808-87.5702 60.94356-1.568 7.90943 4.43194 13.42648 18.50734 17.12446 12.32366 3.23775 29.45381 4.68955 52.78256 4.99369 7.82916.10206 14.50262.08524 27.5688-.02154 18.42096-.15055 25.05093-.13065 32.0889.23727 32.46216-.97076 70.73843-2.71472 121.34472-5.43516z"/></g></svg>