<svg xmlns="http://www.w3.org/2000/svg" width="46" height="46" viewBox="0 0 46 46">
    <g fill="none" fill-rule="evenodd">
        <path fill="#A4C2F7" d="M14.792 33.18l4.51-2.467c-.025-.025-.004-.033.05-.027l2.208-1.208A2.773 2.773 0 0 0 23 27.045v-2.78a14.452 14.452 0 0 1-1.587-2.528l-.001-.002a15.807 15.807 0 0 1-.303-.642l-.04-.092c-.102-.23-.2-.468-.294-.718l-.018-.05a13.848 13.848 0 0 1-.29-.872c-.077-.257-.15-.519-.211-.789a2.283 2.283 0 0 1-1.05-1.914v-3.043a2.272 2.272 0 0 1 .76-1.687V7.632a8.33 8.33 0 0 0-5.31-1.624c-7.255 0-7.587 6.085-7.587 6.085v3.8c-.443.359-.718.886-.759 1.456v2.628c.002.67.344 1.292.906 1.653.501 1.863 1.485 3.56 2.853 4.917v2.401c0 .876-.477 1.682-1.244 2.101l-5.086 3.197A5.272 5.272 0 0 0 1 38.872V41h10.62v-2.464a6.104 6.104 0 0 1 3.172-5.356z"/>
        <path fill="#FFF" d="M14.792 33.18l4.51-2.467c-.025-.025-.004-.033.05-.027l2.208-1.208A2.773 2.773 0 0 0 23 27.045v-2.78a14.452 14.452 0 0 1-1.587-2.528l-.001-.002a15.807 15.807 0 0 1-.303-.642l-.04-.092c-.102-.23-.2-.468-.294-.718l-.018-.05a13.848 13.848 0 0 1-.29-.872c-.077-.257-.15-.519-.211-.789a2.283 2.283 0 0 1-1.05-1.914v-3.043a2.272 2.272 0 0 1 .76-1.687V7.632a8.33 8.33 0 0 0-5.31-1.624c-7.255 0-7.587 6.085-7.587 6.085v3.8c-.443.359-.718.886-.759 1.456v2.628c.002.67.344 1.292.906 1.653.501 1.863 1.485 3.56 2.853 4.917v2.401c0 .876-.477 1.682-1.244 2.101l-5.086 3.197A5.272 5.272 0 0 0 1 38.872V41h10.62v-2.464a6.104 6.104 0 0 1 3.172-5.356z"/>
        <path fill="#E3E7F2" d="M16.792 33.18l4.51-2.467c-.025-.025-.004-.033.05-.027l2.208-1.208A2.773 2.773 0 0 0 25 27.045v-2.78a14.452 14.452 0 0 1-1.587-2.528l-.001-.002a15.807 15.807 0 0 1-.303-.642l-.04-.092c-.102-.23-.2-.468-.294-.718l-.018-.05a13.848 13.848 0 0 1-.29-.872c-.077-.257-.15-.519-.211-.789a2.283 2.283 0 0 1-1.05-1.914v-3.043a2.272 2.272 0 0 1 .76-1.687V7.632a8.33 8.33 0 0 0-5.31-1.624c-7.255 0-7.587 6.085-7.587 6.085v3.8c-.443.359-.718.886-.759 1.456v2.628c.002.67.344 1.292.906 1.653.501 1.863 1.485 3.56 2.853 4.917v2.401c0 .876-.477 1.682-1.244 2.101l-5.086 3.197A5.271 5.271 0 0 0 3 38.872V41h10.62v-2.464a6.104 6.104 0 0 1 3.172-5.356z"/>
        <path fill="#A4C2F7" d="M41.574 34.096l-7.381-3.694a2.818 2.818 0 0 1-1.557-2.521v-2.9a11.1 11.1 0 0 0 .699-.899 17.008 17.008 0 0 0 2.294-4.629 2.32 2.32 0 0 0 1.644-2.208v-3.094a2.309 2.309 0 0 0-.773-1.715V7.962S37.418 1 28 1s-8.5 6.962-8.5 6.962v4.474c-.49.436-.77 1.06-.773 1.715v3.094a2.32 2.32 0 0 0 1.069 1.947 15.354 15.354 0 0 0 2.795 5.79v2.827c0 1.031-.563 1.98-1.467 2.474l-6.894 3.765A6.206 6.206 0 0 0 11 39.495V42h34v-2.354a6.206 6.206 0 0 0-3.426-5.55z"/>
        <path fill="#E3E7F2" d="M39.564 34.096l-7.403-3.694A2.818 2.818 0 0 1 30.6 27.88v-2.9c.249-.287.482-.587.7-.899a16.988 16.988 0 0 0 2.301-4.629 2.322 2.322 0 0 0 1.649-2.208v-3.094a2.306 2.306 0 0 0-.775-1.715V7.962S35.395 1 25.95 1c-4.392 0-5.425 6.962-5.425 6.962v4.474a2.306 2.306 0 0 0-.775 1.715v3.094a2.319 2.319 0 0 0 1.072 1.947 15.335 15.335 0 0 0 2.803 5.79v2.827c0 1.031-.564 1.98-1.471 2.474l-6.914 3.765A6.203 6.203 0 0 0 12 39.495V42h31v-2.354c0-2.35-1.33-4.499-3.436-5.55z"/>
        <path fill="#428DFF" fill-rule="nonzero" d="M45.24 42H11.76a.76.76 0 0 1-.76-.764v-2.473a6.89 6.89 0 0 1 3.577-6.047L21.365 29a2.019 2.019 0 0 0 1.048-1.772V24.7a16.064 16.064 0 0 1-2.665-5.527 3.042 3.042 0 0 1-1.14-2.374v-3.055a3.05 3.05 0 0 1 .762-2.004V7.679a6.862 6.862 0 0 1 1.591-4.983C22.524.906 25.061 0 28.5 0c3.44 0 5.976.907 7.538 2.696a6.862 6.862 0 0 1 1.592 4.983v4.062a3.05 3.05 0 0 1 .761 2.004V16.8a3.031 3.031 0 0 1-1.77 2.762 17.491 17.491 0 0 1-2.248 4.428c-.19.27-.373.513-.547.727v2.582a2.008 2.008 0 0 0 1.112 1.805l7.268 3.647A6.854 6.854 0 0 1 46 38.913v2.323a.765.765 0 0 1-.76.764zm-32.718-1.527h31.956v-1.56a5.333 5.333 0 0 0-2.953-4.796l-7.268-3.647a3.529 3.529 0 0 1-1.953-3.172v-2.862c0-.185.068-.365.19-.504.226-.263.439-.538.637-.824a16.008 16.008 0 0 0 2.156-4.362.762.762 0 0 1 .5-.496c.64-.19 1.08-.78 1.083-1.45v-3.055a1.508 1.508 0 0 0-.51-1.126.764.764 0 0 1-.251-.566V7.636a5.383 5.383 0 0 0-1.228-3.95c-1.263-1.432-3.41-2.159-6.381-2.159-2.982 0-5.133.732-6.394 2.175a5.312 5.312 0 0 0-1.215 3.934v4.417a.764.764 0 0 1-.25.566 1.508 1.508 0 0 0-.51 1.126V16.8c.001.52.266 1.002.703 1.28a.764.764 0 0 1 .33.47 14.433 14.433 0 0 0 2.594 5.396c.114.138.177.311.177.49v2.792a3.547 3.547 0 0 1-1.841 3.112l-6.788 3.716a5.36 5.36 0 0 0-2.784 4.707v1.71z"/>
        <path fill="#428DFF" fill-rule="nonzero" d="M11.613 42H.774A.776.776 0 0 1 0 41.23v-2.156a6.102 6.102 0 0 1 3.198-5.364l5.15-3.216c.554-.286.903-.854.907-1.476v-2.114a11.8 11.8 0 0 1-2.82-4.844 2.745 2.745 0 0 1-1.016-2.13v-2.663a2.677 2.677 0 0 1 .775-1.795v-3.53c.004-.11.473-6.936 8.516-6.936a9.397 9.397 0 0 1 5.893 1.808c.19.146.3.37.3.609v4.352a.768.768 0 0 1-.255.572 1.516 1.516 0 0 0-.519 1.137v3.083c.002.524.272 1.011.716 1.292.17.109.29.28.335.475.06.257.129.507.202.752l.057.18a12.57 12.57 0 0 0 .524 1.39l-.667.405.707-.315c.097.215.195.423.294.62.423.854.934 1.663 1.523 2.414.116.139.18.313.18.494v2.817c0 1.31-.718 2.514-1.873 3.141l-2.253 1.224a.578.578 0 0 1-.03.015l-.02.012-4.604 2.5a5.404 5.404 0 0 0-2.833 4.75v2.496a.769.769 0 0 1-.774.771zM1.549 40.459h9.29v-1.725a6.944 6.944 0 0 1 3.64-6.104l4.475-2.43a.906.906 0 0 1 .257-.14l2.174-1.18a2.035 2.035 0 0 0 1.067-1.79v-2.55a16.36 16.36 0 0 1-1.862-3.165l-.044-.097a14.84 14.84 0 0 1-.584-1.548l-.062-.2c-.057-.187-.11-.375-.16-.566a3.062 3.062 0 0 1-1.16-2.397v-3.083a3.064 3.064 0 0 1 .775-2.023V7.814a8.09 8.09 0 0 0-4.645-1.266c-6.552 0-6.955 5.218-6.97 5.44l.002 3.804a.77.77 0 0 1-.255.57c-.288.22-.475.547-.52.905v2.662c.003.417.217.805.571 1.029.17.108.29.279.335.474a10.258 10.258 0 0 0 2.685 4.59.77.77 0 0 1 .246.564v2.432a3.19 3.19 0 0 1-1.673 2.806L3.98 35.04a4.585 4.585 0 0 0-2.432 4.034v1.385z"/>
        <path fill="#428DFF" fill-rule="nonzero" d="M11.613 42H.774A.776.776 0 0 1 0 41.23v-2.156a6.102 6.102 0 0 1 3.198-5.364l5.15-3.216c.554-.286.903-.854.907-1.476v-2.114a11.8 11.8 0 0 1-2.82-4.844 2.745 2.745 0 0 1-1.016-2.13v-2.663a2.677 2.677 0 0 1 .775-1.795v-3.53c.004-.11.473-6.936 8.516-6.936a9.397 9.397 0 0 1 5.893 1.808c.19.146.3.37.3.609v4.352a.768.768 0 0 1-.255.572 1.516 1.516 0 0 0-.519 1.137v3.083c.002.524.272 1.011.716 1.292.17.109.29.28.335.475.06.257.129.507.202.752l.057.18a12.57 12.57 0 0 0 .524 1.39l-.667.405.707-.315c.097.215.195.423.294.62.423.854.934 1.663 1.523 2.414.116.139.18.313.18.494v2.817c0 1.31-.718 2.514-1.873 3.141l-2.253 1.224a.578.578 0 0 1-.03.015l-.02.012-4.604 2.5a5.404 5.404 0 0 0-2.833 4.75v2.496a.769.769 0 0 1-.774.771zM1.549 40.459h9.29v-1.725a6.944 6.944 0 0 1 3.64-6.104l4.475-2.43a.906.906 0 0 1 .257-.14l2.174-1.18a2.035 2.035 0 0 0 1.067-1.79v-2.55a16.36 16.36 0 0 1-1.862-3.165l-.044-.097a14.84 14.84 0 0 1-.584-1.548l-.062-.2c-.057-.187-.11-.375-.16-.566a3.062 3.062 0 0 1-1.16-2.397v-3.083a3.064 3.064 0 0 1 .775-2.023V7.814a8.09 8.09 0 0 0-4.645-1.266c-6.552 0-6.955 5.218-6.97 5.44l.002 3.804a.77.77 0 0 1-.255.57c-.288.22-.475.547-.52.905v2.662c.003.417.217.805.571 1.029.17.108.29.279.335.474a10.258 10.258 0 0 0 2.685 4.59.77.77 0 0 1 .246.564v2.432a3.19 3.19 0 0 1-1.673 2.806L3.98 35.04a4.585 4.585 0 0 0-2.432 4.034v1.385z"/>
    </g>
</svg>
