<svg xmlns="http://www.w3.org/2000/svg" width="46" height="46" viewBox="0 0 46 46">
    <g fill="none" fill-rule="evenodd">
        <path fill="#ECF8FE" fill-rule="nonzero" d="M3.25 17.421c5.271 20.27 5.001 21.048 0 21.048-.371-.028-.804.014-1.27.111-5.112 1.068 0 8.242 11.558 4.235 26.337-9.132 6.742-12.663 21.61-4.346 14.866 8.317 5.135-1.891 5.135-5.121 0-3.23 11.488-23.389 0-23.389H24.486C6.815 1.421-.264 3.908 3.25 17.421z"/>
        <path fill="#E8CEF7" d="M24.217 18.538H40l-.97-2.606v-.005l-2.136-5.753a1.136 1.136 0 0 0-1.06-.74H12.6c-.47.002-.892.296-1.06.74l-2.136 5.753v.005l-.97 2.606h15.783z"/>
        <path fill="#9BC9FF" d="M36.054 22.521c.382.001.762-.054 1.128-.165A3.978 3.978 0 0 0 40 18.538h-7.891c0 2.2 1.766 3.983 3.945 3.983zM11.253 22.356c.366.11.746.166 1.127.165 2.18 0 3.946-1.783 3.946-3.983H8.435a3.978 3.978 0 0 0 2.818 3.818z"/>
        <path fill="#E8CEF7" d="M29.29 26.504H19.144c-.622 0-1.127.51-1.127 1.138v14.793h12.4V27.642c0-.629-.504-1.138-1.127-1.138z"/>
        <path fill="#9BC9FF" d="M20.272 22.521c2.179 0 3.945-1.783 3.945-3.983h-7.89c0 2.2 1.765 3.983 3.945 3.983zM28.163 22.521c2.18 0 3.946-1.783 3.946-3.983h-7.892c0 2.2 1.767 3.983 3.946 3.983z"/>
        <path fill="#5E77FF" fill-rule="nonzero" d="M40 17.79v-.016-.017c0-.006-.004-.014-.004-.02a.58.58 0 0 0-.032-.183l-3.137-8.44A1.707 1.707 0 0 0 35.227 8H11.773a1.707 1.707 0 0 0-1.603 1.119l-3.135 8.436a.58.58 0 0 0-.032.182c0 .007-.004.013-.004.02v.078A4.541 4.541 0 0 0 9.845 22v18.714c0 .95.764 1.722 1.707 1.722h23.896c.943 0 1.707-.771 1.707-1.722V21.999a4.542 4.542 0 0 0 2.839-4.164v-.024c0-.008.006-.014.006-.022zM11.235 9.525a.577.577 0 0 1 .539-.378h23.452c.239 0 .453.149.538.373l2.844 7.662H8.39l2.845-7.657zm19.614 8.804a3.423 3.423 0 0 1-3.366 2.873 3.423 3.423 0 0 1-3.367-2.873h6.733zm-7.965 0a3.423 3.423 0 0 1-3.367 2.873 3.423 3.423 0 0 1-3.366-2.873h6.733zm-14.7 0h6.73c0 .012-.003.025-.005.037a3.337 3.337 0 0 1-.165.598 3.34 3.34 0 0 1-.219.478c-.011.02-.024.04-.036.057a3.422 3.422 0 0 1-.31.449l-.006.007c-.116.14-.243.27-.38.389l-.042.039a3.441 3.441 0 0 1-.423.306l-.074.045c-.15.087-.305.162-.465.225l-.084.031a3.38 3.38 0 0 1-.512.144l-.068.01c-.19.035-.381.053-.573.055a3.422 3.422 0 0 1-3.367-2.87zm9.626 22.957V26.939c0-.317.255-.574.57-.574h10.24c.315 0 .57.257.57.574v14.348H17.81zm18.207-.574a.571.571 0 0 1-.569.574h-5.12V26.939c0-.95-.765-1.722-1.707-1.722H18.379c-.942 0-1.707.771-1.707 1.722v14.348h-5.12a.571.571 0 0 1-.57-.574v-18.4a4.541 4.541 0 0 0 1.018.012c.049-.005.097-.014.146-.02.097-.014.194-.027.29-.045.056-.012.113-.028.17-.04.085-.021.17-.041.253-.067.057-.018.113-.038.17-.057l.232-.086c.057-.024.114-.05.171-.077a4.222 4.222 0 0 0 .925-.568 4.433 4.433 0 0 0 .455-.41c.057-.058.108-.119.161-.18.04-.046.08-.09.119-.138.052-.066.1-.134.15-.202.033-.047.068-.093.1-.14.05-.077.096-.158.143-.238.016-.028.034-.054.049-.082a4.541 4.541 0 0 0 3.983 2.374c1.657 0 3.183-.91 3.982-2.374a4.541 4.541 0 0 0 3.983 2.374c1.657 0 3.183-.91 3.983-2.374.015.028.033.054.049.082.047.08.093.16.143.237.032.048.067.094.1.141.05.068.098.136.15.202.038.047.08.092.119.138.053.061.105.122.161.18.043.044.089.087.134.13a4.433 4.433 0 0 0 .508.42 4.864 4.864 0 0 0 .357.232c.057.031.11.063.166.092.07.037.142.071.215.104.057.027.114.053.17.077.077.031.155.057.232.086.057.02.114.04.171.057.083.026.17.046.253.066.057.013.114.03.17.04.095.02.193.032.29.045.049.007.097.016.146.02a4.448 4.448 0 0 0 1.018-.012v18.401zm.405-19.655a3.322 3.322 0 0 1-1.547.09l-.068-.011a3.348 3.348 0 0 1-.512-.144l-.084-.03a3.473 3.473 0 0 1-.465-.226l-.074-.045a3.473 3.473 0 0 1-.423-.306l-.042-.039a3.449 3.449 0 0 1-.38-.388l-.007-.008a3.443 3.443 0 0 1-.31-.449c-.01-.02-.024-.04-.035-.057a3.34 3.34 0 0 1-.25-.563 3.337 3.337 0 0 1-.134-.513c0-.012-.003-.024-.005-.036h6.73a3.404 3.404 0 0 1-2.394 2.725z"/>
    </g>
</svg>
