<svg xmlns="http://www.w3.org/2000/svg" width="38" height="37" viewBox="0 0 38 37">
    <g fill="none" fill-rule="evenodd">
        <path fill="#ECF8FE" fill-rule="nonzero" d="M4.833 16.255C9.975 17.948 10.05 9 10.723 9s11.742 11.745 14.509 1.587c1.845-6.772 4.37-7.387 7.577-1.843 4.991 6.956 5.891 10.434 2.7 10.434-4.786 0-7.51 3.513-7.51 9.65 0 6.137-6.581 8.36-9.199 3.386-2.618-4.973 1.264-3.003-10.758-5.27-12.022-2.267-8.35-12.38-3.209-10.688z"/>
        <path fill="#5E77FF" fill-rule="nonzero" d="M22.999 11.054h-6.916a.466.466 0 0 1-.461-.47V7.997C15.622 5.794 17.38 4 19.54 4c2.16 0 3.918 1.794 3.918 3.997v2.587c0 .26-.206.47-.46.47zm-6.455-.94h5.993V7.997c0-1.685-1.344-3.057-2.996-3.057-1.653 0-2.997 1.372-2.997 3.057v2.117z"/>
        <path fill="#2A8EE6" d="M29.73 13.405H8.568l1.442-2.35h18.277z"/>
        <path fill="#5E77FF" fill-rule="nonzero" d="M30.028 14.19H9.053a.478.478 0 0 1-.422-.289.648.648 0 0 1 .006-.57l1.43-2.786a.475.475 0 0 1 .416-.275h18.115c.17 0 .329.105.416.275l1.43 2.786a.65.65 0 0 1 .007.57.479.479 0 0 1-.423.288zM9.91 13.055h19.262l-.848-1.652H10.758l-.849 1.652z"/>
        <path fill="#D7E9FF" d="M21.11 7.135l6.268 1.545-1.57 7.077-6.267-1.545z"/>
        <path fill="#5E77FF" fill-rule="nonzero" d="M25.982 15.757a.51.51 0 0 1-.113-.013l-6.73-1.515a.475.475 0 0 1-.37-.57l1.688-6.94c.03-.124.109-.23.22-.296a.511.511 0 0 1 .373-.06l6.73 1.516c.266.06.431.315.369.57l-1.687 6.94a.473.473 0 0 1-.22.296.508.508 0 0 1-.26.072zm-6.138-2.345l5.77 1.3 1.461-6.016-5.77-1.299-1.46 6.015z"/>
        <path fill="#94C1FF" d="M10.135 7.286l8.348-.935 1.058 8.471-8.349.935z"/>
        <path fill="#5E77FF" fill-rule="nonzero" d="M11.659 16.54a.493.493 0 0 1-.485-.442l-1.036-8.98a.51.51 0 0 1 .102-.369.486.486 0 0 1 .327-.187l8.176-.99a.492.492 0 0 1 .542.438l1.036 8.98a.51.51 0 0 1-.102.37.487.487 0 0 1-.326.187l-8.176.99a.483.483 0 0 1-.058.004zM11.167 7.5l.92 7.984 7.206-.873-.92-7.985-7.206.874z"/>
        <path fill="#51A9F6" d="M14.054 10.598l7.506-1.895 1.9 8.294-7.506 1.895z"/>
        <path fill="#5E77FF" fill-rule="nonzero" d="M15.786 19.676a.514.514 0 0 1-.263-.072.49.49 0 0 1-.226-.302l-2.013-8.138a.476.476 0 0 1 .06-.369.5.5 0 0 1 .311-.22l7.955-1.859a.503.503 0 0 1 .606.36l2.013 8.138a.476.476 0 0 1-.06.369.5.5 0 0 1-.31.22l-7.956 1.859a.49.49 0 0 1-.117.014zm-1.407-8.265l1.778 7.187 6.977-1.63-1.778-7.188-6.977 1.63z"/>
        <path fill="#EBD4F8" d="M31.297 33H7.784l.98-19.595h21.554z"/>
        <path fill="#5E77FF" fill-rule="nonzero" d="M30.811 33H7.486a.48.48 0 0 1-.352-.155.505.505 0 0 1-.133-.367l.972-19.385a.49.49 0 0 1 .485-.471H29.84c.258 0 .471.207.485.471l.972 19.385a.502.502 0 0 1-.133.367.48.48 0 0 1-.353.155zm-22.814-.994H30.3l-.922-18.39H8.92l-.923 18.39z"/>
        <path fill="#94C1FF" d="M24.243 16.149a1.176 1.176 0 1 1-2.351 0 1.176 1.176 0 0 1 2.351 0z"/>
        <path fill="#5E77FF" fill-rule="nonzero" d="M22.676 18.108a1.57 1.57 0 0 1-1.568-1.567 1.57 1.57 0 0 1 1.568-1.568 1.57 1.57 0 0 1 1.567 1.568 1.57 1.57 0 0 1-1.567 1.567zm0-2.09a.523.523 0 1 0 0 1.046.523.523 0 0 0 0-1.046z"/>
        <path fill="#94C1FF" d="M16.405 16.149a1.176 1.176 0 1 1-2.351 0 1.176 1.176 0 0 1 2.351 0z"/>
        <path fill="#5E77FF" fill-rule="nonzero" d="M15.515 17.905a1.459 1.459 0 0 1 0-2.919 1.459 1.459 0 0 1 0 2.919zm0-1.946a.486.486 0 1 0 .002.973.486.486 0 0 0-.002-.973z"/>
        <path fill="#5E77FF" d="M19.152 23.742a4.133 4.133 0 0 1-4.122-4.135v-2.675a.486.486 0 1 1 .97 0v2.675a3.16 3.16 0 0 0 3.152 3.162 3.16 3.16 0 0 0 3.153-3.162v-2.546a.451.451 0 0 1-.019-.13.47.47 0 0 1 .467-.485h.037c.268 0 .485.217.485.486v2.675c0 2.28-1.85 4.135-4.123 4.135zM7.512 32.497h23.28l-.074-1.459H7.587z"/>
        <path fill="#5E77FF" fill-rule="nonzero" d="M30.792 32.984H7.512a.484.484 0 0 1-.484-.511l.075-1.46a.486.486 0 0 1 .484-.461h23.13c.259 0 .472.203.485.462l.074 1.459a.486.486 0 0 1-.484.51zm-22.77-.973h22.26l-.025-.486H8.047l-.024.486z"/>
    </g>
</svg>
