<svg xmlns="http://www.w3.org/2000/svg" width="36" height="36" viewBox="0 0 36 36">
    <g fill="none" fill-rule="evenodd">
        <path fill="#ECF8FE" fill-rule="nonzero" d="M4.117 10.041c5.386 1.369 3.757-5.866 4.462-5.866.705 0 12.3 9.495 15.198 1.283 1.933-5.475 5.359-4.449 10.28 3.08 2.663 3.592 2.323 5.389-1.02 5.389-5.013 0-6.361 4.363-6.361 9.324 0 4.962-6.894 6.758-9.636 2.738-2.742-4.021 5.056-.905-7.537-2.738C-3.091 21.42-1.27 8.672 4.117 10.041z"/>
        <path fill="#EBD4F8" d="M19 30.979L6.01 26.195v-15.39L19 15.588z"/>
        <path fill="#5E77FF" d="M19 30.979l12.99-4.784v-15.39L19 15.588z"/>
        <path fill="#EBD4F8" d="M31.99 10.805L19 15.588 6.01 10.805 19 6.02z"/>
        <path fill="#FFF" d="M15.008 21.994l-5.981-2.099v-6.753l5.98 2.099zM20.989 13.142l-5.981 2.099-5.981-2.099 5.98-2.099zM29.125 24.674l-5.594 2.06a.537.537 0 1 0 .372 1.007l5.594-2.06a.537.537 0 1 0-.372-1.007zM21.993 27.3l-.237.087a.537.537 0 1 0 .372 1.007l.237-.087a.537.537 0 1 0-.372-1.007zM29.125 22.486l-4.42 1.628a.537.537 0 1 0 .372 1.007l4.42-1.628a.537.537 0 1 0-.372-1.007zM29.125 20.322l-4.42 1.627a.537.537 0 1 0 .372 1.008l4.42-1.628a.537.537 0 1 0-.372-1.007z"/>
        <path fill="#5E77FF" fill-rule="nonzero" d="M31.648 10.817L18.686 6.044a.54.54 0 0 0-.372 0L5.352 10.817A.537.537 0 0 0 5 11.32v15.36c0 .224.14.425.352.503l12.962 4.773a.538.538 0 0 0 .372 0l12.962-4.773a.537.537 0 0 0 .352-.504V11.321a.537.537 0 0 0-.352-.504zM9.572 13.38l4.733 1.743v5.733l-4.733-1.743V13.38zm5.27.792l-4.254-1.567 4.255-1.567 4.255 1.567-4.255 1.567zM18.5 7.12l11.408 4.2L18.5 15.523l-2.11-.777 4.448-1.637a.537.537 0 0 0 0-1.008l-5.81-2.139a.54.54 0 0 0-.372 0l-5.628 2.073-1.936-.713L18.5 7.12zM6.076 12.09l2.42.892v6.504c0 .224.14.425.352.503l5.808 2.14a.538.538 0 0 0 .724-.504v-6.108l2.582.95v14.214L6.076 26.305V12.091zm12.962 18.591V16.47l11.886-4.378v14.214l-11.886 4.377z"/>
    </g>
</svg>
