<svg xmlns="http://www.w3.org/2000/svg" width="16" height="16" viewBox="0 0 16 16"><g fill-rule="evenodd"><path fill-rule="nonzero" d="M6.5 13C2.91015 13 0 10.08985 0 6.5S2.91015 0 6.5 0 13 2.91015 13 6.5 10.08985 13 6.5 13zm0-1C9.53757 12 12 9.53757 12 6.5S9.53757 1 6.5 1 1 3.46243 1 6.5 3.46243 12 6.5 12z"/><path d="M14.85355 14.14645c.19527.19526.19527.51184 0 .7071-.19526.19527-.51184.19527-.7071 0l-3.758-3.758c-.19527-.19526-.19527-.51184 0-.7071.19526-.19527.51184-.19527.7071 0l3.758 3.758z"/></g></svg>