<svg height="20" viewBox="0 0 20 20" width="20" xmlns="http://www.w3.org/2000/svg"><g fill="none" fill-rule="evenodd" transform=""><path d="m18.5684211 10.2045455c0-.63818186-.0602871-1.25181823-.1722489-1.84090914h-8.92248799v3.48136364h5.09856459c-.2196172 1.125-.8870813 2.0781818-1.8904306 2.7163636v2.2581819h3.0617225c1.7913875-1.5668182 2.8248804-3.874091 2.8248804-6.615z" fill="#4285f4"/><path d="m9.47368421 19c2.55789469 0 4.70239239-.8059091 6.26985649-2.1804545l-3.0617225-2.2581819c-.8483254.54-1.9334928.8590909-3.20813399.8590909-2.46746411 0-4.55598086-1.5831818-5.30095694-3.7104545h-3.16507177v2.3318182c1.55885168 2.9413636 4.76267943 4.9581818 8.46602871 4.9581818z" fill="#34a853"/><path d="m4.17272727 11.71c-.18947368-.54-.29712918-1.1168182-.29712918-1.71 0-.59318182.1076555-1.17.29712918-1.71v-2.33181818h-3.16507177c-.64162679 1.215-1.0076555 2.58954545-1.0076555 4.04181818 0 1.4522727.36602871 2.8268182 1.0076555 4.0418182z" fill="#fbbc05"/><path d="m9.47368421 4.57954545c1.39090909 0 2.63971289.45409091 3.62153109 1.3459091l2.7172249-2.58136364c-1.6406699-1.45227273-3.7851675-2.34409091-6.33875599-2.34409091-3.70334928 0-6.90717703 2.01681818-8.46602871 4.95818182l3.16507177 2.33181818c.74497608-2.12727273 2.83349283-3.71045455 5.30095694-3.71045455z" fill="#ea4335"/><path d="m1.05263158 1h18.94736842v18h-18.94736842z"/></g></svg>