<svg height="20" viewBox="0 0 48 48" width="20" xmlns="http://www.w3.org/2000/svg"><path d="m41.457031 34.386719-17.679687-17.679688-7.070313 7.070313 5.222657 5.222656h4.070312v4h4v4h4v4h6.460938l2.410156-2.371094z" fill="#ffa000"/><path d="m8.929688 8.929688c-3.90625 3.90625-3.90625 10.234375 0 14.140625s10.234375 3.90625 14.140625 0 3.90625-10.234375 0-14.140625-10.234375-3.90625-14.140625 0zm6.191406 6.191406c-1.171875 1.171875-3.070313 1.171875-4.242188 0s-1.171875-3.070313 0-4.242188 3.070313-1.171875 4.242188 0 1.171875 3.070313 0 4.242188z" fill="#ffa000"/><g fill="#d67c05"><path d="m23.777344 22.363281 1.414062-1.414062 17.679688 17.679687-1.414063 1.414063z"/><path d="m27.238281 20.167969-1.585937-1.585938c-.4375 1.644532-1.292969 3.199219-2.582031 4.488282-1.289063 1.289062-2.84375 2.144531-4.488282 2.582031l1.589844 1.589844c1.601563-.589844 3.070313-1.515625 4.3125-2.757813 1.261719-1.261719 2.171875-2.742187 2.753906-4.316406z"/></g></svg>