<svg height="20" viewBox="0 0 20 20" width="20" xmlns="http://www.w3.org/2000/svg"><g transform="translate(0 1)"><path d="m18.125 16.375c.41386 0 .75-.33614.75-.75v-13.75c0-.41386-.33614-.75-.75-.75h-16.25c-.41386 0-.75.33614-.75.75v13.75c0 .41386.33614.75.75.75zm0 1h-16.25c-.96614 0-1.75-.78386-1.75-1.75v-13.75c0-.96614.78386-1.75 1.75-1.75h16.25c.96614 0 1.75.78386 1.75 1.75v13.75c0 .96614-.78386 1.75-1.75 1.75z"/><path d="m16.55838 3.98802.63324.77396-7.19162 5.88405-7.19162-5.88405.63324-.77396 6.55838 5.36595z"/></g></svg>