<svg height="20" viewBox="0 0 20 20" width="20" xmlns="http://www.w3.org/2000/svg"><path d="m10 2.5985-1.68659 5.38713c-.06531.2086-.25856.35061-.47716.35061h-5.71369l4.53283 3.40654c.17079.12835.24116.35104.17514.55422l-1.77696 5.46891 4.65253-3.38041c.17525-.12733.41255-.12733.5878 0l4.65253 3.38042-1.77696-5.46891c-.06602-.20318.00435-.42587.17514-.55422l4.53283-3.40654h-5.71369c-.2186 0-.41185-.142-.47716-.35061l-1.68659-5.38715zm-2.53114 4.73774 2.05398-6.56063c.14636-.46748.80796-.46748.95432 0l2.05398 6.56064h6.84386c.48026 0 .68432.61118.30039.8997l-5.4445 4.0917 2.14214 6.59284c.14968.46066-.37758.84372-.76943.55901l-5.6036-4.07146-5.6036 4.07146c-.39185.28471-.9191-.09835-.76943-.559l2.14214-6.59285-5.4445-4.0917c-.38393-.28852-.17987-.8997.30039-.8997h6.84386z"/></svg>