<svg height="20" viewBox="0 0 20 20" width="20" xmlns="http://www.w3.org/2000/svg"><g fill-rule="evenodd" transform="translate(2 1)"><path d="m2.5 7.5c-1.65685 0-3-1.34315-3-3s1.34315-3 3-3 3 1.34315 3 3-1.34315 3-3 3zm0-1c1.10457 0 2-.89543 2-2s-.89543-2-2-2-2 .89543-2 2 .89543 2 2 2z" fill-rule="nonzero"/><path d="m5 4h3v1h-3z"/><path d="m11.5 16.5c-1.65685 0-3-1.34315-3-3s1.34315-3 3-3 3 1.34315 3 3-1.34315 3-3 3zm0-1c1.10457 0 2-.89543 2-2s-.89543-2-2-2-2 .89543-2 2 .89543 2 2 2z" fill-rule="nonzero"/><path d="m2 7h1v4h-1z"/><path d="m.5 11.5v4h4v-4zm5-1v6h-6v-6z" fill-rule="nonzero"/><path d="m11.5 7.32843 2.82843-2.82843-2.82843-2.82843-2.82843 2.82843zm-3.81838-3.2527 3.39412-3.3941c.23431-.23432.6142-.23432.84852 0l3.39412 3.3941c.23431.23432.23431.61422 0 .84853l-3.39412 3.39412c-.23431.23431-.6142.23431-.84852 0l-3.39412-3.39412c-.23431-.23431-.23431-.6142 0-.84852z" fill-rule="nonzero"/><path d="m11 8h1v3h-1z"/></g></svg>